<?xml version="1.0" encoding="utf-8"?>
<!-- Generator: Adobe Illustrator 18.1.0, SVG Export Plug-In . SVG Version: 6.00 Build 0)  -->
<svg version="1.1" id="Layer_1" xmlns="http://www.w3.org/2000/svg" xmlns:xlink="http://www.w3.org/1999/xlink" x="0px" y="0px"
	 viewBox="-255 347 100 100" enable-background="new -255 347 100 100" xml:space="preserve">
<g>
	
		<rect x="-186.8" y="382.4" transform="matrix(-0.9697 -0.2441 0.2441 -0.9697 -459.6887 710.9398)" fill="#F03E37" width="2" height="3.1"/>
	
		<rect x="-175" y="403.7" transform="matrix(0.9697 0.2442 -0.2442 0.9697 93.5756 54.607)" fill="#F03E37" width="3.1" height="2"/>
	
		<rect x="-195.2" y="415.4" transform="matrix(0.9697 0.2442 -0.2442 0.9697 95.9539 60.0414)" fill="#F03E37" width="2" height="3.1"/>
	
		<rect x="-208" y="395.3" transform="matrix(-0.9698 -0.2441 0.2441 -0.9698 -503.3705 730.2404)" fill="#F03E37" width="3.1" height="2"/>
	
		<rect x="-203.7" y="387.6" transform="matrix(-0.7175 -0.6966 0.6966 -0.7175 -617.873 526.6686)" fill="#F03E37" width="3.1" height="2"/>
	
		<rect x="-179.1" y="386.7" transform="matrix(-0.7178 -0.6963 0.6963 -0.7178 -576.2585 542.9963)" fill="#F03E37" width="2" height="3.1"/>
	
		<rect x="-179.4" y="411.3" transform="matrix(0.7175 0.6966 -0.6966 0.7175 236.9815 240.3616)" fill="#F03E37" width="3.1" height="2"/>
	
		<rect x="-202.9" y="411.1" transform="matrix(0.7177 0.6963 -0.6963 0.7177 230.3871 257.0591)" fill="#F03E37" width="2" height="3.1"/>
	
		<rect x="-207.3" y="403.7" transform="matrix(0.2794 0.9602 -0.9602 0.2794 240.4243 490.0837)" fill="#F03E37" width="2" height="3.1"/>
	
		<rect x="-196.3" y="383.1" transform="matrix(-0.2792 -0.9602 0.9602 -0.2792 -618.021 304.3831)" fill="#F03E37" width="3.1" height="2"/>
	<path fill="#F03E37" d="M-190.9,400.4c0.1,0.4,0.5,0.7,1,0.7c0.1,0,0.2,0,0.3,0l17.7-4.8c0.5-0.1,0.8-0.7,0.7-1.2
		c-0.1-0.5-0.7-0.8-1.2-0.7l-17.7,4.8C-190.7,399.3-191,399.8-190.9,400.4z"/>
	
		<rect x="-186.8" y="415.8" transform="matrix(0.279 0.9603 -0.9603 0.279 266.7281 478.4211)" fill="#F03E37" width="3.1" height="2"/>
	<path fill="#F03E37" d="M-183.6,376.2c-1.2-0.3-2.3-0.5-3.5-0.6c-0.9-0.1-1.7-0.1-2.6-0.1c-5.5,0-10.7,1.8-14.9,4.9v-0.2
		c-0.2-1.2-1.4-2.1-2.6-1.9l-2.6,0.5l-0.4-2.2c-0.1-0.5-0.6-0.9-1.2-0.8c-0.5,0.1-0.9,0.6-0.8,1.2l0.4,2.2l-8,1.4l-0.5-2.9
		c-0.1-0.5-0.6-0.9-1.2-0.8c-0.5,0.1-0.9,0.6-0.8,1.2l0.5,2.9l-8.4,1.4l-0.5-2.7c-0.1-0.5-0.6-0.9-1.2-0.8c-0.5,0.1-0.9,0.6-0.8,1.2
		l0.5,2.7l-7.4,1.3l-0.4-2.2c-0.1-0.5-0.6-0.9-1.2-0.8c-0.5,0.1-0.9,0.6-0.8,1.2l0.4,2.2l-2.6,0.5c-0.6,0.1-1.1,0.4-1.5,0.9
		c-0.4,0.5-0.5,1.1-0.4,1.7l6.3,37c0.2,1.1,1.1,1.9,2.3,1.9c0.1,0,0.3,0,0.4,0l31.6-5.4l0.4-0.2l-1.7-1.6l-30.7,5.2h-0.1
		c-0.1,0-0.3-0.1-0.3-0.2l-4.8-28l29.5-5c0.4-0.8,0.7-1.5,1.2-2.2l-31,5.3l-1.2-7.1c0-0.1,0-0.2,0.1-0.2c0,0,0.1-0.1,0.2-0.1
		l2.6-0.5l0.4,2.2c0.1,0.5,0.5,0.8,1,0.8c0.1,0,0.1,0,0.2,0c0.5-0.1,0.9-0.6,0.8-1.2l-0.4-2.2l7.4-1.3l0.3,1.8
		c0.1,0.5,0.5,0.8,1,0.8c0.1,0,0.1,0,0.2,0c0.5-0.1,0.9-0.6,0.8-1.2l-0.4-2.1l8.4-1.4l0.3,1.6c0.1,0.5,0.5,0.8,1,0.8
		c0.1,0,0.1,0,0.2,0c0.5-0.1,0.9-0.6,0.8-1.2l-0.3-1.6l8-1.4l0.4,2.2c0.1,0.5,0.5,0.8,1,0.8c0.1,0,0.1,0,0.2,0
		c0.5-0.1,0.9-0.6,0.8-1.2l-0.4-2.2l2.7-0.5c0.1,0,0.3,0.1,0.3,0.2l0.2,1.4c-1.5,1.4-2.9,2.9-4,4.6c-1.6,2.4-2.8,5-3.6,7.9
		c-3.4,13.4,4.8,27,18.1,30.3c2,0.5,4.1,0.8,6.1,0.8c11.5,0,21.4-7.8,24.2-18.9C-162.1,393.1-170.2,379.5-183.6,376.2z M-167.4,406
		c-2.6,10.3-11.8,17.4-22.3,17.4c-1.9,0-3.8-0.2-5.6-0.7c-12.3-3.1-19.8-15.6-16.7-27.9c2.6-10.2,11.7-17.4,22.3-17.4
		c1.9,0,3.8,0.2,5.6,0.7C-171.8,381.2-164.3,393.7-167.4,406z"/>
	<path fill="#F03E37" d="M-229.1,398.6c-1.9,0.3-3.3,1.3-4,3c-0.7,1.6-0.8,4-0.3,7c0.5,2.9,1.4,5.1,2.6,6.5s2.8,1.9,4.7,1.6
		c2-0.3,3.3-1.3,4-3c0.7-1.7,0.8-4,0.3-7c-0.5-2.9-1.4-5.1-2.6-6.4C-225.6,398.8-227.2,398.3-229.1,398.6z M-223.7,412.6
		c-0.4,1.3-1.3,2-2.6,2.3c-1.3,0.2-2.4-0.2-3.2-1.3s-1.4-2.9-1.8-5.4c-0.4-2.5-0.4-4.4,0-5.7c0.4-1.3,1.3-2,2.6-2.2
		c1.3-0.2,2.4,0.2,3.2,1.3c0.8,1.1,1.4,2.9,1.8,5.4C-223.3,409.5-223.3,411.4-223.7,412.6z"/>
	<path fill="#F03E37" d="M-215.4,398.1c0.1-0.6,0.2-1.2,0.3-1.8c-0.1,0-0.1,0-0.2,0c-1.7,0.3-2.9,1-3.7,2.3
		c-0.8,1.2-1.1,2.7-0.8,4.6c0.3,1.7,1,2.9,2,3.6c0.9,0.6,2,0.9,3.2,0.8c-0.2-0.6-0.4-1.1-0.5-1.7c-0.5-0.1-1-0.3-1.4-0.6
		c-0.7-0.6-1.1-1.4-1.3-2.6c-0.2-1.3-0.1-2.4,0.4-3.2C-217,398.8-216.3,398.3-215.4,398.1z"/>
	<path fill="#F03E37" d="M-214.2,414.6c0.9-0.2,1.7-0.4,2.5-0.7c-0.2-0.4-0.5-0.9-0.8-1.5c-0.6,0.3-1.2,0.5-2,0.6s-1.6,0.2-2.2,0.1
		l0.3,1.7C-215.9,414.8-215.1,414.8-214.2,414.6z"/>
</g>
</svg>
