<svg xmlns="http://www.w3.org/2000/svg" xmlns:xlink="http://www.w3.org/1999/xlink" version="1.1" id="Layer_1" x="0px" y="0px" viewBox="0 0 100 100" enable-background="new 0 0 100 100" xml:space="preserve" height="100px" width="100px">
<g>
	<rect x="68.2" y="35.4" transform="matrix(0.9697 0.2441 -0.2441 0.9697 11.1255 -15.7675)" width="2" height="3.1" fill="#F03E37"/>
	<rect x="79.9" y="56.6" transform="matrix(-0.9697 -0.2442 0.2442 -0.9697 146.4785 133.4308)" width="3.1" height="2" fill="#F03E37"/>
	<rect x="59.9" y="68.4" transform="matrix(-0.9697 -0.2442 0.2442 -0.9697 102.8081 152.6969)" width="2" height="3.1" fill="#F03E37"/>
	<rect x="47" y="48.3" transform="matrix(0.9698 0.2441 -0.2441 0.9698 13.5101 -10.3536)" width="3.1" height="2" fill="#F03E37"/>
	<rect x="51.3" y="40.6" transform="matrix(0.7175 0.6966 -0.6966 0.7175 43.926 -25.0297)" width="3.1" height="2" fill="#F03E37"/>
	<rect x="75.9" y="39.7" transform="matrix(0.7178 0.6963 -0.6963 0.7178 50.4422 -41.8675)" width="2" height="3.1" fill="#F03E37"/>
	<rect x="75.7" y="64.3" transform="matrix(-0.7175 -0.6966 0.6966 -0.7175 87.1133 165.9953)" width="3.1" height="2" fill="#F03E37"/>
	<rect x="52.2" y="64.1" transform="matrix(-0.7177 -0.6963 0.6963 -0.7177 45.6007 149.8542)" width="2" height="3.1" fill="#F03E37"/>
	<rect x="47.7" y="56.7" transform="matrix(-0.2794 -0.9602 0.9602 -0.2794 6.3798 121.256)" width="2" height="3.1" fill="#F03E37"/>
	<rect x="58.7" y="36.2" transform="matrix(0.2792 0.9602 -0.9602 0.2792 79.1288 -31.0899)" width="3.1" height="2" fill="#F03E37"/>
	<path d="M64.1,53.4c0.1,0.4,0.5,0.7,1,0.7c0.1,0,0.2,0,0.3,0l17.7-4.8c0.5-0.1,0.8-0.7,0.7-1.2c-0.1-0.5-0.7-0.8-1.2-0.7l-17.7,4.8   C64.3,52.3,64,52.8,64.1,53.4z" fill="#F03E37"/>
	<rect x="68.2" y="68.8" transform="matrix(-0.279 -0.9603 0.9603 -0.279 22.1946 156.2911)" width="3.1" height="2"  fill="#F03E37"/>
	<path d="M71.4,29.2c-1.2-0.3-2.3-0.5-3.5-0.6c-0.9-0.1-1.7-0.1-2.6-0.1c-5.5,0-10.7,1.8-14.9,4.9l0-0.2c-0.2-1.2-1.4-2.1-2.6-1.9   l-2.6,0.5l-0.4-2.2c-0.1-0.5-0.6-0.9-1.2-0.8c-0.5,0.1-0.9,0.6-0.8,1.2l0.4,2.2l-8,1.4l-0.5-2.9c-0.1-0.5-0.6-0.9-1.2-0.8   c-0.5,0.1-0.9,0.6-0.8,1.2l0.5,2.9l-8.4,1.4l-0.5-2.7c-0.1-0.5-0.6-0.9-1.2-0.8c-0.5,0.1-0.9,0.6-0.8,1.2l0.5,2.7l-7.4,1.3   l-0.4-2.2c-0.1-0.5-0.6-0.9-1.2-0.8c-0.5,0.1-0.9,0.6-0.8,1.2l0.4,2.2l-2.6,0.5c-0.6,0.1-1.1,0.4-1.5,0.9c-0.4,0.5-0.5,1.1-0.4,1.7   l6.3,37c0.2,1.1,1.1,1.9,2.3,1.9c0.1,0,0.3,0,0.4,0l31.6-5.4l0.4-0.2l-1.7-1.6l-30.7,5.2l-0.1,0c-0.1,0-0.3-0.1-0.3-0.2l-4.8-28   l29.5-5c0.4-0.8,0.7-1.5,1.2-2.2l-31,5.3l-1.2-7.1c0-0.1,0-0.2,0.1-0.2c0,0,0.1-0.1,0.2-0.1l2.6-0.5l0.4,2.2c0.1,0.5,0.5,0.8,1,0.8   c0.1,0,0.1,0,0.2,0c0.5-0.1,0.9-0.6,0.8-1.2l-0.4-2.2l7.4-1.3l0.3,1.8c0.1,0.5,0.5,0.8,1,0.8c0.1,0,0.1,0,0.2,0   c0.5-0.1,0.9-0.6,0.8-1.2L25,37.1l8.4-1.4l0.3,1.6c0.1,0.5,0.5,0.8,1,0.8c0.1,0,0.1,0,0.2,0c0.5-0.1,0.9-0.6,0.8-1.2l-0.3-1.6   l8-1.4l0.4,2.2c0.1,0.5,0.5,0.8,1,0.8c0.1,0,0.1,0,0.2,0c0.5-0.1,0.9-0.6,0.8-1.2l-0.4-2.2l2.7-0.5c0.1,0,0.3,0.1,0.3,0.2l0.2,1.4   c-1.5,1.4-2.9,2.9-4,4.6c-1.6,2.4-2.8,5-3.6,7.9c-3.4,13.4,4.8,27,18.1,30.3c2,0.5,4.1,0.8,6.1,0.8c11.5,0,21.4-7.8,24.2-18.9   C92.9,46.1,84.8,32.5,71.4,29.2z M87.6,59C85,69.3,75.8,76.4,65.3,76.4c-1.9,0-3.8-0.2-5.6-0.7C47.4,72.6,39.9,60.1,43,47.8   c2.6-10.2,11.7-17.4,22.3-17.4c1.9,0,3.8,0.2,5.6,0.7C83.2,34.2,90.7,46.7,87.6,59z" fill="#F03E37"/>
	<path d="M25.9,51.6c-1.9,0.3-3.3,1.3-4,3c-0.7,1.6-0.8,4-0.3,7c0.5,2.9,1.4,5.1,2.6,6.5s2.8,1.9,4.7,1.6c2-0.3,3.3-1.3,4-3   c0.7-1.7,0.8-4,0.3-7c-0.5-2.9-1.4-5.1-2.6-6.4C29.4,51.8,27.8,51.3,25.9,51.6z M31.3,65.6c-0.4,1.3-1.3,2-2.6,2.3   c-1.3,0.2-2.4-0.2-3.2-1.3c-0.8-1.1-1.4-2.9-1.8-5.4c-0.4-2.5-0.4-4.4,0-5.7c0.4-1.3,1.3-2,2.6-2.2c1.3-0.2,2.4,0.2,3.2,1.3   c0.8,1.1,1.4,2.9,1.8,5.4C31.7,62.5,31.7,64.4,31.3,65.6z" fill="#F03E37"/>
	<path d="M39.6,51.1c0.1-0.6,0.2-1.2,0.3-1.8c-0.1,0-0.1,0-0.2,0c-1.7,0.3-2.9,1-3.7,2.3c-0.8,1.2-1.1,2.7-0.8,4.6   c0.3,1.7,1,2.9,2,3.6c0.9,0.6,2,0.9,3.2,0.8c-0.2-0.6-0.4-1.1-0.5-1.7c-0.5-0.1-1-0.3-1.4-0.6c-0.7-0.6-1.1-1.4-1.3-2.6   c-0.2-1.3-0.1-2.4,0.4-3.2C38,51.8,38.7,51.3,39.6,51.1z" fill="#F03E37"/>
	<path d="M40.8,67.6c0.9-0.2,1.7-0.4,2.5-0.7c-0.2-0.4-0.5-0.9-0.8-1.5c-0.6,0.3-1.2,0.5-2,0.6c-0.8,0.1-1.6,0.2-2.2,0.1l0.3,1.7   C39.1,67.8,39.9,67.8,40.8,67.6z" fill="#F03E37"/>
</g>
</svg>
