<svg xmlns="http://www.w3.org/2000/svg" xmlns:xlink="http://www.w3.org/1999/xlink" version="1.1" id="Layer_1" x="0px" y="0px" width="100px" height="100px" viewBox="0 0 100 100" enable-background="new 0 0 100 100" xml:space="preserve">
<path fill="#f03e37" d="M87.204,42.611l-13.63-11.667V19.337c0-2.64-2.147-4.788-4.788-4.788H65.26  c-2.641,0-4.788,2.148-4.788,4.788v0.392l-6.925-5.928c-0.922-0.79-2.099-1.224-3.316-1.224c-0.119,0-0.241,0.004-0.251,0.012  c-1.355-0.08-2.665,0.346-3.678,1.212l-33.658,28.81c-2.139,1.832-2.39,5.063-0.56,7.203l2.647,3.088  c1.075,1.259,2.757,1.839,4.373,1.703v28.047c0,2.64,2.147,4.788,4.788,4.788h13.414v0.118h25.236v-0.118h13.414  c2.641,0,4.788-2.148,4.788-4.788V54.646c0.164,0.016,0.326,0.044,0.491,0.044c1.496,0,2.912-0.651,3.884-1.786l2.645-3.09  C89.596,47.672,89.343,44.441,87.204,42.611z M62.542,19.337c0-1.498,1.219-2.717,2.718-2.717h3.526  c1.498,0,2.718,1.219,2.718,2.717v9.835l-8.961-7.671V19.337z M60.472,85.37H39.377V58.837c0-1.498,1.219-2.717,2.717-2.717h15.66  c1.498,0,2.718,1.219,2.718,2.717V85.37z M78.674,82.653c0,1.498-1.219,2.717-2.717,2.717H62.542V58.837  c0-2.64-2.147-4.788-4.788-4.788h-15.66c-2.641,0-4.788,2.148-4.788,4.788V85.37H23.893c-1.498,0-2.718-1.219-2.718-2.717V53.982  c0.266-0.149,0.523-0.317,0.758-0.519l27.992-23.958l27.99,23.958c0.237,0.203,0.491,0.381,0.758,0.535V82.653z M86.191,48.468  l-2.645,3.09c-1.047,1.223-3.055,1.383-4.285,0.333L49.925,26.779L20.587,51.89c-1.227,1.05-3.235,0.891-4.283-0.333l-2.647-3.089  c-1.088-1.274-0.938-3.196,0.334-4.285l33.658-28.81c0.548-0.469,1.247-0.727,1.971-0.727l0.396,0.008l0.214-0.008  c0.722,0,1.421,0.258,1.969,0.727l33.658,28.81C87.132,45.273,87.281,47.195,86.191,48.468z"/>
</svg>
