<?xml version="1.0" encoding="utf-8"?>
<!-- Generator: Adobe Illustrator 18.1.0, SVG Export Plug-In . SVG Version: 6.00 Build 0)  -->
<svg version="1.1" id="Layer_1" xmlns="http://www.w3.org/2000/svg" xmlns:xlink="http://www.w3.org/1999/xlink" x="0px" y="0px"
	 viewBox="-255 347 100 100" enable-background="new -255 347 100 100" xml:space="preserve">
<path fill="#F03E37" d="M-167.8,389.6l-13.6-11.7v-11.6c0-2.6-2.1-4.8-4.8-4.8h-3.5c-2.6,0-4.8,2.1-4.8,4.8v0.4l-6.9-5.9
	c-0.9-0.8-2.1-1.2-3.3-1.2c-0.1,0-0.2,0-0.3,0c-1.4-0.1-2.7,0.3-3.7,1.2l-33.7,28.8c-2.1,1.8-2.4,5.1-0.6,7.2l2.6,3.1
	c1.1,1.3,2.8,1.8,4.4,1.7v28c0,2.6,2.1,4.8,4.8,4.8h13.4v0.1h25.2v-0.1h13.4c2.6,0,4.8-2.1,4.8-4.8v-28c0.2,0,0.3,0,0.5,0
	c1.5,0,2.9-0.7,3.9-1.8l2.6-3.1C-165.4,394.7-165.7,391.4-167.8,389.6z M-192.5,366.3c0-1.5,1.2-2.7,2.7-2.7h3.5
	c1.5,0,2.7,1.2,2.7,2.7v9.8l-9-7.7L-192.5,366.3L-192.5,366.3z M-194.5,432.4h-21.1v-26.5c0-1.5,1.2-2.7,2.7-2.7h15.7
	c1.5,0,2.7,1.2,2.7,2.7C-194.5,405.8-194.5,432.4-194.5,432.4z M-176.3,429.7c0,1.5-1.2,2.7-2.7,2.7h-13.4v-26.5
	c0-2.6-2.1-4.8-4.8-4.8h-15.7c-2.6,0-4.8,2.1-4.8,4.8v26.5h-13.4c-1.5,0-2.7-1.2-2.7-2.7V401c0.3-0.1,0.5-0.3,0.8-0.5l28-24l28,24
	c0.2,0.2,0.5,0.4,0.8,0.5L-176.3,429.7L-176.3,429.7z M-168.8,395.5l-2.6,3.1c-1,1.2-3.1,1.4-4.3,0.3l-29.3-25.1l-29.3,25.1
	c-1.2,1-3.2,0.9-4.3-0.3l-2.6-3.1c-1.1-1.3-0.9-3.2,0.3-4.3l33.7-28.8c0.5-0.5,1.2-0.7,2-0.7l0.4,0l0.2,0c0.7,0,1.4,0.3,2,0.7
	l33.7,28.8C-167.9,392.3-167.7,394.2-168.8,395.5z"/>
</svg>
