<?xml version="1.0" encoding="utf-8"?>
<!-- Generator: Adobe Illustrator 18.1.0, SVG Export Plug-In . SVG Version: 6.00 Build 0)  -->
<svg version="1.1" id="Layer_1" xmlns="http://www.w3.org/2000/svg" xmlns:xlink="http://www.w3.org/1999/xlink" x="0px" y="0px"
	 viewBox="-255 347 100 100" enable-background="new -255 347 100 100" xml:space="preserve">
<g>
	<path fill="#F03E37" d="M-160.9,419.4h-88.2c-0.8,0-1.5-0.7-1.5-1.5v-41.8c0-0.8,0.7-1.5,1.5-1.5h88.2c0.8,0,1.5,0.7,1.5,1.5v41.8
		C-159.4,418.7-160.1,419.4-160.9,419.4z M-248.6,417.4h87.2v-40.8h-87.2V417.4z"/>
</g>
<g>
	<path fill="#F03E37" d="M-173.4,413.4h-63.2c-0.8,0-1.5-0.7-1.5-1.5c0-2-1.6-3.6-3.6-3.6c-0.8,0-1.5-0.7-1.5-1.5v-19.5
		c0-0.8,0.7-1.5,1.5-1.5c2,0,3.6-1.6,3.6-3.6c0-0.8,0.7-1.5,1.5-1.5h63.2c0.8,0,1.5,0.7,1.5,1.5c0,2,1.6,3.6,3.6,3.6
		c0.8,0,1.5,0.7,1.5,1.5v19.5c0,0.8-0.7,1.5-1.5,1.5c-2,0-3.6,1.6-3.6,3.6C-171.9,412.8-172.6,413.4-173.4,413.4z M-235.3,411.5
		h60.6c0.6-2.4,3.5-5.3,5.9-5.9v-16.8c-2.4-0.6-5.3-3.5-5.9-5.9h-60.6c-0.6,2.4-3.5,5.3-5.9,5.9v16.8
		C-238.8,406.2-235.9,409.1-235.3,411.5z"/>
</g>
<g>
	<path fill="#F03E37" d="M-205,408.6c-6.3,0-11.4-5.1-11.4-11.4c0-6.3,5.1-11.4,11.4-11.4c6.3,0,11.4,5.1,11.4,11.4
		C-193.6,403.5-198.7,408.6-205,408.6z M-205,387.8c-4.6,0-9.4,4.8-9.4,9.4c0,4.6,4.8,9.4,9.4,9.4c4.6,0,9.4-4.8,9.4-9.4
		C-195.6,392.6-200.4,387.8-205,387.8z"/>
</g>
<g>
	<path fill="#F03E37" d="M-230.1,402.3v-0.5c-0.8-0.1-1.3-0.5-1.7-0.7c-0.7-0.6-0.9-1-0.9-1.3c0-0.4,0.4-0.8,0.8-0.8
		c0.3,0,0.5,0.2,0.7,0.4c0.3,0.4,0.6,0.6,1,0.7v-2.4c-1.7-0.5-2.5-1.3-2.5-2.6c0-1.3,1-2.4,2.5-2.7V392c0-0.5,0.4-0.8,0.8-0.8
		c0.4,0,0.8,0.4,0.8,0.8v0.5c1.8,0.3,2.5,1.5,2.5,1.7c0.1,0.1,0.1,0.2,0.1,0.4c0,0.5-0.4,0.8-0.8,0.8c-0.4,0-0.5-0.1-0.8-0.4
		c-0.2-0.3-0.6-0.6-1.1-0.8v2.3c1.9,0.5,2.6,1.3,2.6,2.7c0,1.5-0.9,2.5-2.6,2.7v0.5c0,0.5-0.4,0.8-0.8,0.8
		C-229.7,403.1-230.1,402.8-230.1,402.3 M-230.1,396v-1.8c-0.6,0.2-0.9,0.5-0.9,1C-231,395.5-230.7,395.8-230.1,396 M-228.4,398.1
		v2.1c0.6-0.1,1-0.4,1-1.1C-227.4,398.7-227.7,398.4-228.4,398.1"/>
</g>
<g>
	<path fill="#F03E37" d="M-182.2,402.3v-0.5c-0.8-0.1-1.3-0.5-1.7-0.7c-0.7-0.6-0.9-1-0.9-1.3c0-0.4,0.4-0.8,0.8-0.8
		c0.3,0,0.5,0.2,0.7,0.4c0.3,0.4,0.6,0.6,1,0.7v-2.4c-1.7-0.5-2.5-1.3-2.5-2.6c0-1.3,1-2.4,2.5-2.7V392c0-0.5,0.4-0.8,0.8-0.8
		c0.4,0,0.8,0.4,0.8,0.8v0.5c1.8,0.3,2.5,1.5,2.5,1.7c0.1,0.1,0.1,0.2,0.1,0.4c0,0.5-0.4,0.8-0.8,0.8c-0.4,0-0.5-0.1-0.8-0.4
		c-0.2-0.3-0.6-0.6-1.1-0.8v2.3c1.9,0.5,2.6,1.3,2.6,2.7c0,1.5-0.9,2.5-2.6,2.7v0.5c0,0.5-0.4,0.8-0.8,0.8
		C-181.9,403.1-182.2,402.8-182.2,402.3 M-182.2,396v-1.8c-0.6,0.2-0.9,0.5-0.9,1C-183.1,395.5-182.8,395.8-182.2,396 M-180.6,398.1
		v2.1c0.6-0.1,1-0.4,1-1.1C-179.6,398.7-179.8,398.4-180.6,398.1"/>
</g>
</svg>
