<?xml version="1.0" encoding="utf-8"?>
<!-- Generator: Adobe Illustrator 18.1.0, SVG Export Plug-In . SVG Version: 6.00 Build 0)  -->
<svg version="1.1" id="Layer_1" xmlns="http://www.w3.org/2000/svg" xmlns:xlink="http://www.w3.org/1999/xlink" x="0px" y="0px"
	 viewBox="0 0 612 792" enable-background="new 0 0 612 792" xml:space="preserve">
<g>
	<path fill="#F03E37" d="M575.9,533.1H36.1c-4.9,0-9.2-4.3-9.2-9.2V268.1c0-4.9,4.3-9.2,9.2-9.2h539.8c4.9,0,9.2,4.3,9.2,9.2v255.8
		C585.1,528.8,580.8,533.1,575.9,533.1z M39.2,520.8h533.7V271.2H39.2L39.2,520.8L39.2,520.8z"/>
</g>
<g>
	<path fill="#F03E37" d="M499.4,496.4H112.6c-4.9,0-9.2-4.3-9.2-9.2c0-12.2-9.8-22-22-22c-4.9,0-9.2-4.3-9.2-9.2V336.6
		c0-4.9,4.3-9.2,9.2-9.2c12.2,0,22-9.8,22-22c0-4.9,4.3-9.2,9.2-9.2h386.8c4.9,0,9.2,4.3,9.2,9.2c0,12.2,9.8,22,22,22
		c4.9,0,9.2,4.3,9.2,9.2V456c0,4.9-4.3,9.2-9.2,9.2c-12.2,0-22,9.8-22,22C508.6,492.7,504.3,496.4,499.4,496.4z M120.6,484.7h370.9
		c3.7-14.7,21.4-32.4,36.1-36.1V345.8c-14.7-3.7-32.4-21.4-36.1-36.1H120.6c-3.7,14.7-21.4,32.4-36.1,36.1v102.8
		C99.1,452.3,116.9,470.1,120.6,484.7z"/>
</g>
<g>
	<path fill="#F03E37" d="M306,467c-38.6,0-69.8-31.2-69.8-69.8s31.2-69.8,69.8-69.8s69.8,31.2,69.8,69.8S344.6,467,306,467z
		 M306,339.7c-28.2,0-57.5,29.4-57.5,57.5s29.4,57.5,57.5,57.5c28.2,0,57.5-29.4,57.5-57.5C363.5,369.1,334.2,339.7,306,339.7z"/>
</g>
<g>
	<path fill="#F03E37" d="M152.4,428.4v-3.1c-4.9-0.6-8-3.1-10.4-4.3c-4.3-3.7-5.5-6.1-5.5-8c0-2.4,2.4-4.9,4.9-4.9
		c1.8,0,3.1,1.2,4.3,2.4c1.8,2.4,3.7,3.7,6.1,4.3v-14.7c-10.4-3.1-15.3-8-15.3-15.9c0-8,6.1-14.7,15.3-16.5v-2.4
		c0-3.1,2.4-4.9,4.9-4.9c2.4,0,4.9,2.4,4.9,4.9v3.1c11,1.8,15.3,9.2,15.3,10.4c0.6,0.6,0.6,1.2,0.6,2.4c0,3.1-2.4,4.9-4.9,4.9
		c-2.4,0-3.1-0.6-4.9-2.4c-1.2-1.8-3.7-3.7-6.7-4.9v14.1c11.6,3.1,15.9,8,15.9,16.5c0,9.2-5.5,15.3-15.9,16.5v3.1
		c0,3.1-2.4,4.9-4.9,4.9C154.8,433.3,152.4,431.5,152.4,428.4 M152.4,389.9v-11c-3.7,1.2-5.5,3.1-5.5,6.1
		C146.9,386.8,148.7,388.7,152.4,389.9 M162.8,402.7v12.9c3.7-0.6,6.1-2.4,6.1-6.7C168.9,406.4,167.1,404.6,162.8,402.7"/>
</g>
<g>
	<path fill="#F03E37" d="M445.5,428.4v-3.1c-4.9-0.6-8-3.1-10.4-4.3c-4.3-3.7-5.5-6.1-5.5-8c0-2.4,2.4-4.9,4.9-4.9
		c1.8,0,3.1,1.2,4.3,2.4c1.8,2.4,3.7,3.7,6.1,4.3v-14.7c-10.4-3.1-15.3-8-15.3-15.9c0-8,6.1-14.7,15.3-16.5v-2.4
		c0-3.1,2.4-4.9,4.9-4.9c2.4,0,4.9,2.4,4.9,4.9v3.1c11,1.8,15.3,9.2,15.3,10.4c0.6,0.6,0.6,1.2,0.6,2.4c0,3.1-2.4,4.9-4.9,4.9
		c-2.4,0-3.1-0.6-4.9-2.4c-1.2-1.8-3.7-3.7-6.7-4.9v14.1c11.6,3.1,15.9,8,15.9,16.5c0,9.2-5.5,15.3-15.9,16.5v3.1
		c0,3.1-2.4,4.9-4.9,4.9C447.4,433.3,445.5,431.5,445.5,428.4 M445.5,389.9v-11c-3.7,1.2-5.5,3.1-5.5,6.1
		C440,386.8,441.9,388.7,445.5,389.9 M455.3,402.7v12.9c3.7-0.6,6.1-2.4,6.1-6.7C461.4,406.4,460.2,404.6,455.3,402.7"/>
</g>
</svg>
