<svg xmlns="http://www.w3.org/2000/svg" xmlns:xlink="http://www.w3.org/1999/xlink" version="1.1" id="Layer_1" x="0px" y="0px" viewBox="0 0 100 100" enable-background="new 0 0 100 100" xml:space="preserve" height="100px" width="100px">
<g>
	<path fill="#f03e37" d="M71.6,26.5H20c-0.3,0-0.7,0.2-0.8,0.5c-0.1,0.3-0.1,0.7,0.2,0.9L71,84.5c0.2,0.2,0.4,0.3,0.7,0.3   c0.1,0,0.2,0,0.3-0.1c0.3-0.1,0.6-0.5,0.6-0.8V27.4C72.5,26.9,72.1,26.5,71.6,26.5z M22,28.3h4.9v2.1c0,0.5,0.4,0.9,0.9,0.9   c0.5,0,0.9-0.4,0.9-0.9v-2.1h3.7v2.1c0,0.5,0.4,0.9,0.9,0.9s0.9-0.4,0.9-0.9v-2.1h3.7v2.1c0,0.5,0.4,0.9,0.9,0.9s0.9-0.4,0.9-0.9   v-2.1h3.7v2.1c0,0.5,0.4,0.9,0.9,0.9c0.5,0,0.9-0.4,0.9-0.9v-2.1h3.7v2.1c0,0.5,0.4,0.9,0.9,0.9c0.5,0,0.9-0.4,0.9-0.9v-2.1h3.7   v2.1c0,0.5,0.4,0.9,0.9,0.9s0.9-0.4,0.9-0.9v-2.1h3.7v2.1c0,0.5,0.4,0.9,0.9,0.9c0.5,0,0.9-0.4,0.9-0.9v-2.1H65v2.1   c0,0.5,0.4,0.9,0.9,0.9c0.5,0,0.9-0.4,0.9-0.9v-2.1h4v4.5h-1.9c-0.5,0-0.9,0.4-0.9,0.9s0.4,0.9,0.9,0.9h1.9v3.7h-1.9   c-0.5,0-0.9,0.4-0.9,0.9c0,0.5,0.4,0.9,0.9,0.9h1.9v3.7h-1.9c-0.5,0-0.9,0.4-0.9,0.9c0,0.5,0.4,0.9,0.9,0.9h1.9v3.7h-1.9   c-0.5,0-0.9,0.4-0.9,0.9s0.4,0.9,0.9,0.9h1.9v3.7h-1.9c-0.5,0-0.9,0.4-0.9,0.9s0.4,0.9,0.9,0.9h1.9V60h-1.9c-0.5,0-0.9,0.4-0.9,0.9   c0,0.5,0.4,0.9,0.9,0.9h1.9v3.7h-1.9c-0.5,0-0.9,0.4-0.9,0.9s0.4,0.9,0.9,0.9h1.9v3.7h-1.9c-0.5,0-0.9,0.4-0.9,0.9   c0,0.5,0.4,0.9,0.9,0.9h1.9v9L22,28.3z"/>
	<path fill="#f03e37" d="M60.4,37.7h-15c-0.3,0-0.7,0.2-0.8,0.5c-0.1,0.3-0.1,0.7,0.1,0.9l15,16.8c0.2,0.2,0.4,0.3,0.7,0.3   c0.1,0,0.2,0,0.3-0.1c0.3-0.1,0.6-0.5,0.6-0.8V38.6C61.3,38.1,60.9,37.7,60.4,37.7z M59.6,53.1L47.4,39.5h12.2V53.1z"/>
</g>
</svg>
