<?xml version="1.0" encoding="utf-8"?>
<!-- Generator: Adobe Illustrator 18.1.0, SVG Export Plug-In . SVG Version: 6.00 Build 0)  -->
<svg version="1.1" id="Layer_1" xmlns="http://www.w3.org/2000/svg" xmlns:xlink="http://www.w3.org/1999/xlink" x="0px" y="0px"
	 viewBox="-255 347 100 100" enable-background="new -255 347 100 100" xml:space="preserve">
<g>
	<path fill="#F03E37" d="M-183.4,373.5H-235c-0.3,0-0.7,0.2-0.8,0.5c-0.1,0.3-0.1,0.7,0.2,0.9l51.6,56.6c0.2,0.2,0.4,0.3,0.7,0.3
		c0.1,0,0.2,0,0.3-0.1c0.3-0.1,0.6-0.5,0.6-0.8v-56.5C-182.5,373.9-182.9,373.5-183.4,373.5z M-233,375.3h4.9v2.1
		c0,0.5,0.4,0.9,0.9,0.9s0.9-0.4,0.9-0.9v-2.1h3.7v2.1c0,0.5,0.4,0.9,0.9,0.9s0.9-0.4,0.9-0.9v-2.1h3.7v2.1c0,0.5,0.4,0.9,0.9,0.9
		s0.9-0.4,0.9-0.9v-2.1h3.7v2.1c0,0.5,0.4,0.9,0.9,0.9s0.9-0.4,0.9-0.9v-2.1h3.7v2.1c0,0.5,0.4,0.9,0.9,0.9s0.9-0.4,0.9-0.9v-2.1
		h3.7v2.1c0,0.5,0.4,0.9,0.9,0.9s0.9-0.4,0.9-0.9v-2.1h3.7v2.1c0,0.5,0.4,0.9,0.9,0.9s0.9-0.4,0.9-0.9v-2.1h3.3v2.1
		c0,0.5,0.4,0.9,0.9,0.9s0.9-0.4,0.9-0.9v-2.1h4v4.5h-1.9c-0.5,0-0.9,0.4-0.9,0.9s0.4,0.9,0.9,0.9h1.9v3.7h-1.9
		c-0.5,0-0.9,0.4-0.9,0.9s0.4,0.9,0.9,0.9h1.9v3.7h-1.9c-0.5,0-0.9,0.4-0.9,0.9s0.4,0.9,0.9,0.9h1.9v3.7h-1.9
		c-0.5,0-0.9,0.4-0.9,0.9s0.4,0.9,0.9,0.9h1.9v3.7h-1.9c-0.5,0-0.9,0.4-0.9,0.9s0.4,0.9,0.9,0.9h1.9v3.4h-1.9
		c-0.5,0-0.9,0.4-0.9,0.9s0.4,0.9,0.9,0.9h1.9v3.7h-1.9c-0.5,0-0.9,0.4-0.9,0.9s0.4,0.9,0.9,0.9h1.9v3.7h-1.9
		c-0.5,0-0.9,0.4-0.9,0.9s0.4,0.9,0.9,0.9h1.9v9L-233,375.3z"/>
	<path fill="#F03E37" d="M-194.6,384.7h-15c-0.3,0-0.7,0.2-0.8,0.5c-0.1,0.3-0.1,0.7,0.1,0.9l15,16.8c0.2,0.2,0.4,0.3,0.7,0.3
		c0.1,0,0.2,0,0.3-0.1c0.3-0.1,0.6-0.5,0.6-0.8v-16.7C-193.7,385.1-194.1,384.7-194.6,384.7z M-195.4,400.1l-12.2-13.6h12.2
		C-195.4,386.5-195.4,400.1-195.4,400.1z"/>
</g>
</svg>
