<svg width="65" height="65" viewBox="0 0 65 65" fill="none" xmlns="http://www.w3.org/2000/svg">
<g clip-path="url(#clip0)">
<rect width="65" height="65" fill="#F7F7F7"/>
<rect width="65" height="66.0156" fill="#F7F7F7"/>
<path d="M47.2681 20.6363L48.7892 21.0192L49.3827 18.6615L47.8616 18.2786L47.2681 20.6363Z" fill="#446CEB"/>
<path d="M59.3817 35.4289L57.024 34.8352L56.641 36.3563L58.9987 36.95L59.3817 35.4289Z" fill="#446CEB"/>
<path d="M42.8065 44.51L41.2854 44.127L40.6917 46.4847L42.2128 46.8677L42.8065 44.51Z" fill="#446CEB"/>
<path d="M30.7807 29.78L33.1386 30.3735L33.5215 28.8523L31.1636 28.2588L30.7807 29.78Z" fill="#446CEB"/>
<path d="M34.0947 23.042L35.8392 24.7357L36.9319 23.6102L35.1874 21.9165L34.0947 23.042Z" fill="#446CEB"/>
<path d="M52.968 23.3826L54.0939 24.4749L55.7869 22.7296L54.6609 21.6374L52.968 23.3826Z" fill="#446CEB"/>
<path d="M55.9888 42.1441L54.2443 40.4504L53.1516 41.5759L54.8961 43.2696L55.9888 42.1441Z" fill="#446CEB"/>
<path d="M37.1477 41.7991L36.0219 40.7069L34.3289 42.4519L35.4547 43.5441L37.1477 41.7991Z" fill="#446CEB"/>
<path d="M33.6014 36.7242L33.1631 35.218L30.8286 35.8973L31.2668 37.4035L33.6014 36.7242Z" fill="#446CEB"/>
<path d="M40.1444 18.8292L40.8232 21.1638L42.3294 20.7259L41.6506 18.3912L40.1444 18.8292Z" fill="#446CEB"/>
<path d="M44.3224 32.5294C44.4009 32.8431 44.7146 33.0784 45.1067 33.0784C45.1852 33.0784 45.2636 33.0784 45.342 33.0784L59.2244 29.3137C59.6165 29.2353 59.8518 28.7647 59.7734 28.3725C59.695 27.9804 59.2244 27.7451 58.8322 27.8235L44.9499 31.5882C44.4793 31.6667 44.244 32.0588 44.3224 32.5294Z" fill="#446CEB"/>
<path d="M49.8778 46.3507L49.1994 44.0159L47.6931 44.4535L48.3714 46.7884L49.8778 46.3507Z" fill="#446CEB"/>
<path d="M50.0479 13.549C49.1067 13.3137 48.244 13.1569 47.3028 13.0784C46.5969 13 45.9695 13 45.2636 13C40.9499 13 36.8714 14.4118 33.5773 16.8431V16.6863C33.4204 15.7451 32.4793 15.0392 31.5381 15.1961L29.4989 15.5882L29.1852 13.8627C29.1067 13.4706 28.7146 13.1569 28.244 13.2353C27.8518 13.3137 27.5381 13.7059 27.6165 14.1765L27.9303 15.902L21.6557 17L21.2636 14.7255C21.1852 14.3333 20.793 14.0196 20.3224 14.098C19.9303 14.1765 19.6165 14.5686 19.695 15.0392L20.0871 17.3137L13.4989 18.4118L13.1067 16.2941C13.0283 15.902 12.6361 15.5882 12.1656 15.6667C11.7734 15.7451 11.4597 16.1373 11.5381 16.6078L11.9303 18.7255L6.12633 19.7451L5.81261 18.0196C5.73417 17.6274 5.34202 17.3137 4.87143 17.3922C4.47927 17.4706 4.16555 17.8627 4.24398 18.3333L4.5577 20.0588L2.51849 20.451C2.0479 20.5294 1.65575 20.7647 1.34202 21.1569C1.02829 21.549 0.949856 22.0196 1.02829 22.4902L5.96947 51.5098C6.12633 52.3726 6.83221 53 7.77339 53C7.85182 53 8.00868 53 8.08711 53L32.8714 48.7647L33.1851 48.6078L31.8518 47.3529L7.77339 51.4314H7.69495C7.61652 51.4314 7.45967 51.3529 7.45967 51.2745L3.69496 29.3137L26.8322 25.3921C27.1459 24.7647 27.3812 24.2157 27.7734 23.6667L3.45966 27.8235L2.51849 22.2549C2.51849 22.1765 2.51848 22.098 2.59692 22.098C2.59692 22.098 2.67536 22.0196 2.75379 22.0196L4.793 21.6275L5.10673 23.353C5.18516 23.7451 5.49889 23.9804 5.89104 23.9804C5.96947 23.9804 5.96947 23.9804 6.0479 23.9804C6.44006 23.902 6.75379 23.5098 6.67536 23.0392L6.36162 21.3137L12.1656 20.2941L12.4008 21.7059C12.4793 22.098 12.793 22.3333 13.1851 22.3333C13.2636 22.3333 13.2636 22.3333 13.342 22.3333C13.7342 22.2549 14.0479 21.8628 13.9695 21.3922L13.6557 19.7451L20.244 18.6471L20.4793 19.902C20.5577 20.2941 20.8714 20.5294 21.2636 20.5294C21.342 20.5294 21.342 20.5294 21.4204 20.5294C21.8126 20.451 22.1263 20.0588 22.0479 19.5882L21.8126 18.3333L28.0871 17.2353L28.4008 18.9608C28.4793 19.3529 28.793 19.5882 29.1852 19.5882C29.2636 19.5882 29.2636 19.5882 29.342 19.5882C29.7342 19.5098 30.0479 19.1177 29.9695 18.6471L29.6557 16.9216L31.7734 16.5294C31.8518 16.5294 32.0087 16.6079 32.0087 16.6863L32.1656 17.7843C30.9891 18.8824 29.891 20.0588 29.0283 21.3922C27.7734 23.2745 26.8322 25.3137 26.2048 27.5882C23.5381 38.098 29.9695 48.7647 40.4008 51.3529C41.9695 51.7451 43.6165 51.9804 45.1852 51.9804C54.2048 51.9804 61.9695 45.8627 64.1655 37.1569C66.9106 26.8039 60.5577 16.1373 50.0479 13.549ZM62.7538 36.9216C60.7146 45 53.4989 50.5686 45.2636 50.5686C43.7734 50.5686 42.2832 50.4118 40.8714 50.0196C31.2244 47.5882 25.342 37.7843 27.7734 28.1372C29.8126 20.1372 36.9499 14.4902 45.2636 14.4902C46.7538 14.4902 48.244 14.6471 49.6557 15.0392C59.3028 17.4706 65.1852 27.2745 62.7538 36.9216Z" fill="#446CEB"/>
<path d="M14.3617 31.1177C12.8715 31.353 11.7734 32.1373 11.2244 33.4706C10.6754 34.7255 10.597 36.6079 10.9891 38.9608C11.3813 41.2353 12.0872 42.9608 13.0283 44.0588C13.9695 45.1569 15.2244 45.549 16.7146 45.3138C18.2832 45.0785 19.3028 44.2941 19.8519 42.9608C20.4009 41.6275 20.4793 39.8236 20.0872 37.4706C19.695 35.1961 18.9891 33.4706 18.0479 32.451C17.1068 31.2745 15.8519 30.8824 14.3617 31.1177ZM18.597 42.0981C18.2832 43.1177 17.5773 43.6667 16.5577 43.902C15.5381 44.0588 14.6754 43.7451 14.0479 42.8824C13.4205 42.0196 12.9499 40.6079 12.6362 38.6471C12.3224 36.6863 12.3224 35.1961 12.6362 34.1765C12.9499 33.1569 13.6558 32.6079 14.6754 32.451C15.695 32.2941 16.5577 32.6079 17.1852 33.4706C17.8126 34.3334 18.2832 35.7451 18.597 37.7059C18.9107 39.6667 18.9107 41.1569 18.597 42.0981Z" fill="#446CEB"/>
<path d="M25.1067 30.7255C25.1851 30.2549 25.2636 29.7843 25.342 29.3137C25.2636 29.3137 25.2636 29.3137 25.1851 29.3137C23.8518 29.549 22.9106 30.098 22.2832 31.1177C21.6557 32.0588 21.4204 33.2353 21.6557 34.7255C21.891 36.0588 22.44 37 23.2244 37.549C23.9302 38.0196 24.793 38.2549 25.7342 38.1765C25.5773 37.7059 25.4204 37.3137 25.342 36.8431C24.9498 36.7647 24.5577 36.6078 24.244 36.3725C23.6949 35.902 23.3812 35.2745 23.2244 34.3333C23.0675 33.3137 23.1459 32.451 23.5381 31.8235C23.8518 31.2745 24.4008 30.8824 25.1067 30.7255Z" fill="#446CEB"/>
<path d="M26.0479 43.6667C26.7538 43.5098 27.3812 43.3529 28.0087 43.1176C27.8518 42.8039 27.6165 42.4118 27.3812 41.9412C26.9106 42.1765 26.44 42.3333 25.8126 42.4118C25.1851 42.4902 24.5577 42.5686 24.0871 42.4902L24.3224 43.8235C24.7146 43.8235 25.342 43.8235 26.0479 43.6667Z" fill="#446CEB"/>
</g>
<defs>
<clipPath id="clip0">
<rect width="65" height="65" fill="white"/>
</clipPath>
</defs>
</svg>
