<svg width="65" height="65" viewBox="0 0 65 65" fill="none" xmlns="http://www.w3.org/2000/svg">
<rect width="65" height="65" fill="#F7F7F7"/>
<path d="M50.4242 4.5H13.5758C13.2579 4.5 13 4.75794 13 5.07576V58.0455C13 58.3633 13.2579 58.6212 13.5758 58.6212H50.4242C50.7421 58.6212 51 58.3633 51 58.0455V5.07576C51 4.75794 50.7421 4.5 50.4242 4.5ZM49.8485 5.65152V20.6212H14.1515V5.65152H49.8485ZM14.1515 57.4697V21.7727H49.8485V57.4697H14.1515Z" fill="#101131"/>
<path d="M20.4848 59.7727H18.1818C17.864 59.7727 17.606 60.0306 17.606 60.3485C17.606 60.6663 17.864 60.9242 18.1818 60.9242H20.4848C20.8027 60.9242 21.0606 60.6663 21.0606 60.3485C21.0606 60.0306 20.8027 59.7727 20.4848 59.7727Z" fill="#101131"/>
<path d="M45.8182 59.7727H43.5151C43.1973 59.7727 42.9394 60.0306 42.9394 60.3485C42.9394 60.6663 43.1973 60.9242 43.5151 60.9242H45.8182C46.136 60.9242 46.3939 60.6663 46.3939 60.3485C46.3939 60.0306 46.136 59.7727 45.8182 59.7727Z" fill="#101131"/>
<path d="M20.4848 14.8636C20.8027 14.8636 21.0606 14.6057 21.0606 14.2878V11.9848C21.0606 11.667 20.8027 11.4091 20.4848 11.4091C20.167 11.4091 19.9091 11.667 19.9091 11.9848V14.2878C19.9091 14.6057 20.167 14.8636 20.4848 14.8636Z" fill="#101131"/>
<path d="M20.4848 27.5303C20.167 27.5303 19.9091 27.7882 19.9091 28.106V41.9242C19.9091 42.242 20.167 42.5 20.4848 42.5C20.8027 42.5 21.0606 42.242 21.0606 41.9242V28.106C21.0606 27.7882 20.8027 27.5303 20.4848 27.5303Z" fill="#101131"/>
</svg>
