<svg width="65" height="65" viewBox="0 0 65 65" fill="none" xmlns="http://www.w3.org/2000/svg">
<rect width="65" height="65" fill="#F7F7F7"/>
<path d="M28.3123 23.1096C35.6511 23.5385 41.4589 29.4241 41.8891 36.6791H52.0833C52.5386 36.6791 52.9081 37.0486 52.9081 37.504C52.9081 45.4841 46.4306 51.9617 38.4504 51.9617C36.5228 51.9617 34.683 51.5823 33.0009 50.8966C31.2938 51.6074 29.421 52 27.4578 52C19.4782 52 13 45.5218 13 37.5422C13 29.8735 19.0091 23.5213 26.6619 23.1063C26.6738 22.9604 26.6903 22.7994 26.7127 22.6259C18.9629 22.6621 19.3205 14.9954 19.3212 14.9736C19.372 13.085 26.5148 13.7212 28.1381 18.8651C29.3127 17.2734 31.3993 16.0031 35.102 16.3297C36.1823 16.4228 36.0417 18.0659 34.9608 17.9729C31.1605 17.6377 28.672 19.5065 28.3123 23.1096V23.1096ZM40.2361 36.6791C39.7933 30.0042 34.2455 24.7342 27.4578 24.7342C20.3797 24.7342 14.6498 30.4642 14.6498 37.5422C14.6498 44.6203 20.3797 50.3502 27.4578 50.3502C28.6707 50.3502 29.8433 50.182 30.9546 49.8672C29.9449 49.2535 29.0171 48.519 28.1896 47.6849C17.4286 47.4526 17.5441 38.8488 17.5441 38.8238C17.5441 37.7389 19.1938 37.7389 19.1938 38.8238C19.1938 38.8436 19.1074 45.0308 26.7081 45.9355C24.9996 43.5619 23.9926 40.6497 23.9926 37.504C23.9926 37.0486 24.3622 36.6791 24.8175 36.6791H40.2361V36.6791ZM37.7905 39.0976L32.3555 44.5326C33.8324 45.8141 35.7184 46.639 37.7905 46.7841V39.0976ZM31.4224 43.5995L36.6924 38.3295H29.1841C29.3603 40.3369 30.1746 42.1622 31.4224 43.5995ZM40.2084 38.3295L45.4783 43.5995C46.7262 42.1622 47.5405 40.3369 47.7167 38.3295H40.2084ZM44.5452 44.5326L39.1103 39.0976V46.7841C41.1824 46.639 43.0684 45.8141 44.5452 44.5326ZM49.3724 38.3288C48.9474 44.0357 44.179 48.457 38.4504 48.457C32.7218 48.457 27.9533 44.0357 27.5284 38.3288H25.6688C26.0951 45.0664 31.6943 50.312 38.4504 50.312C45.2064 50.312 50.8057 45.0664 51.232 38.3288H49.3724ZM26.8935 20.9715C26.7338 19.3501 25.8384 15.7015 20.996 15.7781C21.1557 17.4001 22.0519 21.048 26.8935 20.9715Z" fill="#101131"/>
</svg>
