<svg width="65" height="65" viewBox="0 0 65 65" fill="none" xmlns="http://www.w3.org/2000/svg">
<rect width="65" height="65" fill="#F7F7F7"/>
<path d="M40.2129 45.657C40.0131 45.657 39.7884 45.5821 39.6386 45.4323L30.8003 36.5939C30.5007 36.2943 30.5007 35.77 30.8003 35.4704C31.0999 35.1708 31.6242 35.1708 31.9238 35.4704L40.2129 43.7595L42.3601 41.6123L32.0986 31.3508C31.799 31.0512 31.799 30.5269 32.0986 30.2273C32.3982 29.9277 32.9225 29.9277 33.2221 30.2273L44.0578 41.063C44.3574 41.3626 44.3574 41.8869 44.0578 42.1865L40.7622 45.4822C40.6373 45.5571 40.4376 45.657 40.2129 45.657Z" fill="black"/>
<path d="M18.4665 23.9106C18.2668 23.9106 18.067 23.8357 17.8922 23.6859C17.5926 23.3863 17.5926 22.862 17.8922 22.5624L21.2129 19.2667C21.5125 18.9671 22.0368 18.9671 22.3364 19.2667C22.636 19.5663 22.636 20.0906 22.3364 20.3902L19.0407 23.6609C18.8909 23.8357 18.6912 23.9106 18.4665 23.9106Z" fill="black"/>
<path d="M42.8843 48.3286C42.6846 48.3286 42.4849 48.2537 42.3101 48.1038C42.0105 47.8042 42.0105 47.2799 42.3101 46.9803L45.6058 43.6847C45.9054 43.3851 46.4297 43.3851 46.7293 43.6847C47.0289 43.9843 47.0289 44.5086 46.7293 44.8082L43.4336 48.1038C43.3088 48.2537 43.109 48.3286 42.8843 48.3286Z" fill="black"/>
<path d="M45.5808 50.9999C45.3811 50.9999 45.1813 50.925 45.0066 50.7752C44.707 50.4756 44.707 49.9513 45.0066 49.6517L48.3022 46.3561C48.6018 46.0564 49.1261 46.0564 49.4257 46.3561C49.7254 46.6557 49.7254 47.18 49.4257 47.4796L46.1301 50.7752C45.9803 50.925 45.7805 50.9999 45.5808 50.9999Z" fill="black"/>
<path d="M46.4546 34.3469C46.205 34.3469 45.9303 34.2221 45.7805 33.9724C44.1077 31.3758 45.0065 29.2786 45.7056 27.5808C46.3797 26.0079 46.904 24.7595 45.7805 23.1367C45.5309 22.7622 45.6307 22.2878 45.9803 22.0381C46.3298 21.7884 46.8291 21.8883 47.0788 22.2378C48.7017 24.5848 47.8778 26.5072 47.1537 28.205C46.4546 29.8279 45.8804 31.226 47.1038 33.0985C47.3535 33.4731 47.2286 33.9724 46.8791 34.1971C46.7542 34.297 46.6044 34.3469 46.4546 34.3469Z" fill="black"/>
<path d="M50.8738 41.6622C50.724 41.6622 50.5742 41.6123 50.4494 41.5374C50.0749 41.2877 49.975 40.8134 50.2247 40.4388C51.4481 38.5663 50.8489 37.1682 50.1748 35.5453C49.4507 33.8475 48.6268 31.9251 50.2497 29.5781C50.4993 29.2036 50.9987 29.1287 51.3482 29.3784C51.7227 29.6281 51.7976 30.1274 51.5479 30.477C50.4244 32.0998 50.9487 33.3482 51.6228 34.9211C52.3469 36.6189 53.2457 38.7161 51.5479 41.2877C51.3981 41.5124 51.1485 41.6622 50.8738 41.6622Z" fill="black"/>
<path d="M14.272 49.7766C14.0723 49.7766 13.8725 49.7017 13.6978 49.5519C13.3982 49.2523 13.3982 48.728 13.6978 48.4284L48.8765 13.2247C49.1761 12.9251 49.7004 12.9251 50 13.2247C50.2996 13.5243 50.2996 14.0486 50 14.3482L14.8213 49.5269C14.6715 49.7017 14.4717 49.7766 14.272 49.7766Z" fill="black"/>
<path d="M29.8765 28.7293C29.6767 28.7293 29.477 28.6544 29.3022 28.5046L16.0696 15.2471L13.3482 17.9685C13.0486 18.2681 12.5243 18.2681 12.2247 17.9685C11.9251 17.6689 11.9251 17.1446 12.2247 16.845L15.5204 13.5493C15.6702 13.3995 15.8699 13.3246 16.0946 13.3246C16.2943 13.3246 16.5191 13.3995 16.6689 13.5493L30.4757 27.3561C30.7753 27.6557 30.7753 28.18 30.4757 28.4796C30.2759 28.6544 30.0762 28.7293 29.8765 28.7293Z" fill="black"/>
<path d="M29.2024 34.6465C29.0026 34.6465 28.8029 34.5716 28.6281 34.4218L12.2247 17.9685C11.9251 17.6689 11.9251 17.1445 12.2247 16.8449C12.5243 16.5453 13.0486 16.5453 13.3482 16.8449L29.7766 33.2983C30.0762 33.5979 30.0762 34.1222 29.7766 34.4218C29.6268 34.5716 29.4271 34.6465 29.2024 34.6465Z" fill="black"/>
</svg>
