<svg width="65" height="65" viewBox="0 0 65 65" fill="none" xmlns="http://www.w3.org/2000/svg">
<rect width="65" height="65" fill="#F7F7F7"/>
<rect width="65" height="65" fill="#F7F7F7"/>
<path d="M63.3463 20H53.7309C53.3666 20 53.0337 20.2056 52.8708 20.5315L47.1015 32.0699C46.9527 32.3681 46.9687 32.7221 47.1438 33.0057C47.3189 33.2888 47.6283 33.4615 47.9617 33.4615H50.474L47.0494 43.7342C46.9062 44.1643 47.0823 44.6357 47.4724 44.8662C47.6246 44.9563 47.7936 45 47.9612 45C48.2222 45 48.4805 44.8939 48.6678 44.6911L62.0012 30.268C62.2603 29.9877 62.3289 29.5802 62.1758 29.2299C62.0228 28.8801 61.6772 28.6538 61.295 28.6538H58.5813L64.1055 21.5517C64.3308 21.262 64.3712 20.869 64.2102 20.539C64.0487 20.2094 63.7134 20 63.3463 20ZM55.8563 29.0252C55.631 29.3149 55.5906 29.7079 55.7516 30.0379C55.9131 30.3675 56.2484 30.5769 56.6155 30.5769H59.0968L50.2852 40.1087L52.7201 32.8042C52.8177 32.5108 52.7684 32.1887 52.5877 31.938C52.4069 31.6868 52.1168 31.5385 51.8078 31.5385H49.5176L54.3253 21.9231H61.3805L55.8563 29.0252Z" fill="#101131"/>
<path d="M9 45C4.58881 45 1 41.3521 1 36.8683C1 35.4546 1.36456 34.0605 2.05413 32.8358L9 20L15.9481 32.8399C16.6354 34.0605 17 35.4546 17 36.8683C17 41.3518 13.4112 45 9 45ZM9 21.1714L2.53833 33.1122C1.89461 34.2555 1.55548 35.5529 1.55548 36.8683C1.55548 41.0406 4.89496 44.4354 9 44.4354C13.105 44.4354 16.4445 41.0406 16.4445 36.8683C16.4445 35.5529 16.1054 34.2555 15.4639 33.1163L9 21.1714Z" fill="#101131" stroke="#101131"/>
<path d="M31.0788 45C26.0724 45 22 40.8804 22 35.8161C22 33.2607 22.6208 32.2268 23.2219 31.2268C23.8266 30.2179 24.4546 29.1768 24.4546 25.8679C24.4546 25.5321 24.6454 25.2232 24.9477 25.0714C25.2518 24.9196 25.6135 24.95 25.887 25.1482C25.9806 25.2161 27.4797 26.3304 28.4208 28.2339C28.4856 27.7429 28.5288 27.2179 28.545 26.6696C28.6206 24.3071 28.428 23.2732 27.0784 21.4161C26.8804 21.1446 26.8534 20.7857 27.0082 20.4875C27.1611 20.1875 27.4707 20 27.8072 20C30.3302 20 32.8783 21.2268 34.7967 23.3643C36.7834 25.5768 37.8379 28.475 37.7767 31.4554C38.6405 30.6 39.6915 29.9482 40.8918 29.9482C41.2535 29.9482 41.5792 30.1625 41.7196 30.4929C41.8617 30.8232 41.7898 31.2036 41.5378 31.4625C40.2115 32.825 40.1576 33.4893 40.1576 35.8161C40.1576 40.8804 36.0852 45 31.0788 45ZM26.1552 27.9768C25.923 30.2196 25.3166 31.2286 24.7677 32.1411C24.2261 33.0429 23.7996 33.7536 23.7996 35.8161C23.7996 39.8964 27.064 43.2143 31.0788 43.2143C35.0936 43.2143 38.358 39.8964 38.358 35.8161C38.358 34.8321 38.3706 34.05 38.4894 33.3518C37.6958 34.3518 37.0749 35.5518 36.8176 36.1589C36.6322 36.6 36.1355 36.8107 35.6821 36.6554C35.2322 36.4929 34.9874 36.0107 35.126 35.5554L35.216 35.2679C35.6137 33.9768 35.7936 33.3893 35.9088 32.3964C36.2471 29.5268 35.3491 26.6661 33.4524 24.55C32.3367 23.3089 30.9798 22.4393 29.5689 22.0375C30.2924 23.5 30.4021 24.7982 30.3428 26.725C30.2708 29.0732 29.7957 30.9946 29.0093 32.1357C28.7807 32.4643 28.356 32.6054 27.9817 32.4786C27.6002 32.3518 27.3501 31.9911 27.3663 31.5929C27.4347 30.0982 26.8048 28.8536 26.1552 27.9768Z" fill="#101131"/>
</svg>
