<svg width="65" height="65" viewBox="0 0 65 65" fill="none" xmlns="http://www.w3.org/2000/svg">
<rect width="65" height="65" fill="#F7F7F7"/>
<path d="M37.1295 36.1239V37.1184C39.8512 37.1184 41.6832 39.6308 41.6832 41.9338H42.6777C42.73 39.1074 40.4793 36.1239 37.1295 36.1239Z" fill="#101131"/>
<path d="M37.0771 33.8209C36.1873 33.8209 35.3499 33.9779 34.5124 34.2397C33.7273 33.9779 32.8375 33.8209 31.9477 33.8209C31.0579 33.8209 30.2204 33.9779 29.3829 34.2397C28.5978 33.9779 27.708 33.8209 26.8705 33.8209C22.4738 33.8209 18.9146 37.3802 18.9146 41.7768C18.9146 46.1735 22.4738 49.7328 26.8705 49.7328C27.7603 49.7328 28.5978 49.5757 29.3829 49.314C30.1681 49.5757 31.0579 49.7328 31.9477 49.7328C32.8375 49.7328 33.6749 49.5757 34.5124 49.314C35.2975 49.5757 36.1873 49.7328 37.0771 49.7328C41.4738 49.7328 45.0331 46.1735 45.0331 41.7768C45.0331 37.3802 41.4738 33.8209 37.0771 33.8209ZM26.9229 48.3719C23.3113 48.3719 20.3278 45.3884 20.3278 41.7768C20.3278 38.1653 23.3113 35.1818 26.9229 35.1818C27.1322 35.1818 27.3416 35.1818 27.551 35.2341C25.4573 36.6474 24.0964 39.0551 24.0964 41.7768C24.0964 44.4986 25.4573 46.9063 27.551 48.3195C27.3416 48.3195 27.1322 48.3719 26.9229 48.3719ZM32 48.3719C28.3884 48.3719 25.405 45.3884 25.405 41.7768C25.405 38.1653 28.3884 35.1818 32 35.1818C32.2094 35.1818 32.4187 35.1818 32.6281 35.2341C30.5344 36.6474 29.1212 39.0551 29.1212 41.7768C29.1212 44.4986 30.4821 46.9063 32.6281 48.3195C32.4187 48.3195 32.2094 48.3719 32 48.3719ZM37.0771 48.3719C36.8678 48.3719 36.6584 48.3719 36.449 48.3195C35.7686 48.2672 35.1405 48.1102 34.5124 47.8485C32.157 46.854 30.4821 44.4986 30.4821 41.7768C30.4821 39.0551 32.157 36.6997 34.5124 35.7052C35.0882 35.4435 35.7686 35.2865 36.449 35.2341C36.6584 35.2341 36.8678 35.1818 37.0771 35.1818C40.6887 35.1818 43.6722 38.1653 43.6722 41.7768C43.6722 45.3884 40.7411 48.3719 37.0771 48.3719Z" fill="#101131"/>
<path d="M31.8953 30.7328C33.3609 30.7328 34.46 29.6336 34.6171 28.0633C34.6694 27.5923 34.46 26.5454 32.4711 22.4628C32.4187 22.3581 32.3664 22.3058 32.3664 22.2534L31.9476 21.3113L31.4766 22.2534C31.2672 22.7245 29.2259 26.7025 29.2259 28.011C29.1735 29.5289 30.4297 30.7328 31.8953 30.7328ZM31.8953 23.6143C33.5179 27.0165 33.6226 27.8016 33.6226 27.9587C33.5179 28.9532 32.8375 29.7383 31.8953 29.7383C30.9532 29.7383 30.168 28.9532 30.168 28.011C30.2204 27.3306 31.1102 25.2369 31.8953 23.6143Z" fill="#101131"/>
<path d="M48.0689 13.8264H15.8264V14.8209H48.0689V13.8264Z" fill="#101131"/>
<path d="M13 11V54.3388H51V11H13ZM14.1515 12.1515H49.9008V16.4435H14.1515V12.1515ZM14.1515 53.1873V17.595H49.9008V53.2397H14.1515V53.1873Z" fill="#101131"/>
</svg>
