<svg width="65" height="65" viewBox="0 0 65 65" fill="none" xmlns="http://www.w3.org/2000/svg">
<g clip-path="url(#clip0)">
<rect width="65" height="65" fill="white"/>
<rect width="65" height="66.0156" fill="#F7F7F7"/>
<path d="M62.0656 48H3.00656C2.47046 48 2 47.5295 2 46.9934V19.0066C2 18.4705 2.47046 18 3.00656 18H62.0656C62.6018 18 63.0722 18.4705 63.0722 19.0066V46.9934C63.0722 47.5295 62.6018 48 62.0656 48ZM3.34573 46.6543H61.7374V19.3457H3.34573V46.6543Z" fill="#446CEB"/>
<path d="M53.6959 43.9847H11.3764C10.8403 43.9847 10.3698 43.5142 10.3698 42.9781C10.3698 41.6433 9.29761 40.5711 7.96282 40.5711C7.42671 40.5711 6.95625 40.1006 6.95625 39.5645V26.5011C6.95625 25.965 7.42671 25.4945 7.96282 25.4945C9.29761 25.4945 10.3698 24.4223 10.3698 23.0875C10.3698 22.5514 10.8403 22.0809 11.3764 22.0809H53.6959C54.232 22.0809 54.7024 22.5514 54.7024 23.0875C54.7024 24.4223 55.7746 25.4945 57.1094 25.4945C57.6455 25.4945 58.116 25.965 58.116 26.5011V39.5645C58.116 40.1006 57.6455 40.5711 57.1094 40.5711C55.7746 40.5711 54.7024 41.6433 54.7024 42.9781C54.7024 43.5798 54.232 43.9847 53.6959 43.9847ZM12.2517 42.7046H52.8315C53.2363 41.0963 55.1729 39.1597 56.7812 38.7549V27.5076C55.1729 27.1028 53.2363 25.1663 52.8315 23.558H12.2517C11.8468 25.1663 9.9103 27.1028 8.30199 27.5076V38.7549C9.89936 39.1597 11.8468 41.1072 12.2517 42.7046Z" fill="#446CEB"/>
<path d="M32.5361 40.768C28.3129 40.768 24.8994 37.3545 24.8994 33.1313C24.8994 28.9081 28.3129 25.4945 32.5361 25.4945C36.7593 25.4945 40.1729 28.9081 40.1729 33.1313C40.1729 37.3545 36.7593 40.768 32.5361 40.768ZM32.5361 26.8402C29.4508 26.8402 26.2451 30.0569 26.2451 33.1313C26.2451 36.2057 29.4617 39.4223 32.5361 39.4223C35.6215 39.4223 38.8271 36.2057 38.8271 33.1313C38.8271 30.0569 35.6215 26.8402 32.5361 26.8402Z" fill="#446CEB"/>
<path d="M15.7309 36.5449V36.2058C15.1948 36.1401 14.8556 35.8666 14.593 35.7353C14.1225 35.3305 13.9913 35.0679 13.9913 34.86C13.9913 34.5974 14.2538 34.3239 14.5274 34.3239C14.7243 34.3239 14.8665 34.4552 14.9978 34.5865C15.1948 34.8491 15.4026 34.9913 15.6652 35.057V33.4486C14.5274 33.1095 13.9913 32.5734 13.9913 31.709C13.9913 30.8338 14.6587 30.1007 15.6652 29.9038V29.6412C15.6652 29.302 15.9278 29.1051 16.2013 29.1051C16.4639 29.1051 16.7374 29.3677 16.7374 29.6412V29.9804C17.9409 30.1773 18.4114 30.9869 18.4114 31.1182C18.477 31.1839 18.477 31.2495 18.477 31.3808C18.477 31.72 18.2145 31.9169 17.9409 31.9169C17.6783 31.9169 17.6018 31.8513 17.4048 31.6543C17.2735 31.4574 17 31.2495 16.6718 31.1182V32.6609C17.9409 33.0001 18.4114 33.5362 18.4114 34.4662C18.4114 35.4727 17.8096 36.1401 16.6718 36.2714V36.6106C16.6718 36.9497 16.4092 37.1467 16.1357 37.1467C15.9934 37.081 15.7309 36.8841 15.7309 36.5449ZM15.7309 32.3327V31.1292C15.326 31.2605 15.1291 31.4683 15.1291 31.7966C15.1291 31.9935 15.326 32.2014 15.7309 32.3327ZM16.8687 33.7331V35.1445C17.2735 35.0788 17.5361 34.8819 17.5361 34.4114C17.5361 34.1379 17.3392 33.941 16.8687 33.7331Z" fill="#446CEB"/>
<path d="M47.7987 36.5449V36.2058C47.2626 36.1401 46.9234 35.8666 46.6609 35.7353C46.1904 35.3305 46.0591 35.0679 46.0591 34.86C46.0591 34.5974 46.3217 34.3239 46.5952 34.3239C46.7922 34.3239 46.9344 34.4552 47.0657 34.5865C47.2626 34.8491 47.4705 34.9913 47.7331 35.057V33.4486C46.5952 33.1095 46.0591 32.5734 46.0591 31.709C46.0591 30.8338 46.7265 30.1007 47.7331 29.9038V29.6412C47.7331 29.302 47.9957 29.1051 48.2692 29.1051C48.5318 29.1051 48.8053 29.3677 48.8053 29.6412V29.9804C50.0088 30.1773 50.4792 30.9869 50.4792 31.1182C50.5449 31.1839 50.5449 31.2495 50.5449 31.3808C50.5449 31.72 50.2823 31.9169 50.0088 31.9169C49.7462 31.9169 49.6696 31.8513 49.4727 31.6543C49.3414 31.4574 49.0679 31.2495 48.7396 31.1182V32.6609C50.0088 33.0001 50.4792 33.5362 50.4792 34.4662C50.4792 35.4727 49.8775 36.1401 48.7396 36.2714V36.6106C48.7396 36.9497 48.4771 37.1467 48.2035 37.1467C48.0066 37.081 47.7987 36.8841 47.7987 36.5449ZM47.7987 32.3327V31.1292C47.3939 31.2605 47.197 31.4683 47.197 31.7966C47.197 31.9935 47.4048 32.2014 47.7987 32.3327ZM48.8709 33.7331V35.1445C49.2757 35.0788 49.5383 34.8819 49.5383 34.4114C49.5383 34.1379 49.407 33.941 48.8709 33.7331Z" fill="#446CEB"/>
</g>
<defs>
<clipPath id="clip0">
<rect width="65" height="65" fill="white"/>
</clipPath>
</defs>
</svg>
