<svg width="65" height="65" viewBox="0 0 65 65" fill="none" xmlns="http://www.w3.org/2000/svg">
<rect width="65" height="65" fill="#F7F7F7"/>
<rect width="65" height="65" fill="#F7F7F7"/>
<path d="M41.2779 33.134C41.2779 27.2941 36.9063 22.3383 31.1976 21.5368V15.7057C31.1976 15.223 30.8058 14.8312 30.3231 14.8312C29.8404 14.8312 29.4486 15.223 29.4486 15.7057V22.4004L27.0393 19.9912C26.6979 19.6497 26.1443 19.6497 25.8028 19.9912C25.4613 20.3326 25.4613 20.8862 25.8028 21.2277L29.4486 24.8735V31.3072L23.7259 28.0029L22.4089 23.0891C22.2843 22.623 21.8037 22.344 21.3381 22.4708C20.8715 22.5958 20.5947 23.0755 20.7198 23.5416L21.5842 26.7663L17.3119 24.2994C16.8921 24.0576 16.3587 24.2014 16.1173 24.6194C15.8759 25.0379 16.0189 25.5726 16.4374 25.814L20.6752 28.2608L17.4325 29.1297C16.966 29.2547 16.6892 29.7339 16.8143 30.2005C16.9188 30.5914 17.2721 30.8489 17.6586 30.8489C17.7334 30.8489 17.8099 30.8393 17.8855 30.8188L22.8177 29.4974L28.5745 32.8214L22.2497 36.4724L17.3621 35.193C16.893 35.0697 16.4172 35.3504 16.2948 35.8174C16.1724 36.2848 16.4518 36.7627 16.9192 36.8847L20.0958 37.7159L16.4378 39.8278C16.0194 40.0696 15.8764 40.604 16.1177 41.0224C16.28 41.3031 16.5738 41.4596 16.8759 41.4596C17.0242 41.4596 17.1746 41.422 17.3123 41.3425L21.0119 39.2065L20.1474 42.5069C20.025 42.9738 20.3044 43.4522 20.7718 43.5742C20.8461 43.5939 20.9209 43.603 20.9939 43.603C21.3822 43.603 21.7364 43.3424 21.8396 42.9498L23.1421 37.9765L29.4499 34.3347V41.2388L25.8041 44.8846C25.4626 45.2261 25.4626 45.7797 25.8041 46.1212C25.9751 46.2921 26.1985 46.3774 26.4224 46.3774C26.6463 46.3774 26.8697 46.2921 27.0407 46.1212L29.4499 43.7119V50.5606C29.4499 51.0433 29.8417 51.4351 30.3244 51.4351C30.8071 51.4351 31.1989 51.0433 31.1989 50.5606V44.7316C36.9059 43.9301 41.2779 38.9743 41.2779 33.134ZM31.2715 23.3151C35.9715 24.131 39.5289 28.274 39.5289 33.134C39.5289 37.9944 35.9715 42.1365 31.2715 42.9533V23.3151Z" fill="#101131"/>
<path d="M48.7929 31.9915H43.5525C43.0698 31.9915 42.678 32.3832 42.678 32.866C42.678 33.3487 43.0698 33.7405 43.5525 33.7405H48.7929C49.2756 33.7405 49.6674 33.3491 49.6674 32.866C49.6674 32.3828 49.2756 31.9915 48.7929 31.9915Z" fill="#101131"/>
<path d="M46.5608 42.6091L42.0217 39.9887C41.602 39.7464 41.0681 39.8907 40.8272 40.3088C40.5858 40.7272 40.7288 41.262 41.1472 41.5033L45.6863 44.1237C45.824 44.2033 45.9744 44.2409 46.1227 44.2409C46.4248 44.2409 46.7186 44.0844 46.8809 43.8037C47.1222 43.3852 46.9792 42.8505 46.5608 42.6091Z" fill="#101131"/>
<path d="M36.6977 46.1496C36.4559 45.7316 35.9207 45.5878 35.5032 45.8296C35.0847 46.0714 34.9417 46.6061 35.1831 47.0241L37.8035 51.5628C37.9658 51.8435 38.2596 52 38.5617 52C38.71 52 38.8608 51.9624 38.9981 51.8828C39.4166 51.641 39.5595 51.1063 39.3182 50.6883L36.6977 46.1496Z" fill="#101131"/>
<path d="M41.3168 25.9316C41.465 25.9316 41.6159 25.894 41.7532 25.8144L46.2918 23.194C46.7103 22.9522 46.8533 22.4175 46.6119 21.9994C46.3697 21.581 45.8349 21.4376 45.4173 21.6794L40.8787 24.2998C40.4602 24.5416 40.3173 25.0764 40.5586 25.4944C40.7208 25.7751 41.0147 25.9316 41.3168 25.9316Z" fill="#101131"/>
<path d="M35.0379 20.1704C35.1757 20.25 35.3261 20.2876 35.4743 20.2876C35.7764 20.2876 36.0703 20.1311 36.2325 19.8504L38.8529 15.3122C39.0943 14.8937 38.9513 14.359 38.5328 14.1176C38.1131 13.8754 37.5796 14.0196 37.3383 14.4377L34.7179 18.9754C34.4765 19.3934 34.6195 19.9286 35.0379 20.1704Z" fill="#101131"/>
</svg>
