<svg width="65" height="65" viewBox="0 0 65 65" fill="none" xmlns="http://www.w3.org/2000/svg">
<rect width="65" height="65" fill="#F7F7F7"/>
<rect width="65" height="65" fill="#F7F7F7"/>
<path d="M50.25 32.3242L50.25 32.3265L50.25 32.3272L50.25 32.3397L50.2498 32.3903C50.2496 32.435 50.2493 32.5015 50.2485 32.5874C50.247 32.7593 50.244 33.0089 50.2379 33.3179C50.2258 33.9363 50.2016 34.7912 50.1532 35.7372C50.0556 37.6473 49.8625 39.8542 49.4951 41.2565C49.0951 42.6321 48.0103 43.71 46.6473 44.0777C45.9807 44.2528 44.7479 44.3962 43.2119 44.5064C41.695 44.6153 39.9426 44.6882 38.2762 44.7369C36.611 44.7856 35.0375 44.81 33.8799 44.8222C33.3012 44.8283 32.8269 44.8313 32.4974 44.8328C32.3326 44.8336 32.2041 44.834 32.1169 44.8342L32.0178 44.8343L31.9926 44.8344L31.9863 44.8344L31.9848 44.8344H31.9845L31.9844 45.5844L31.9843 44.8344H31.9839L31.9824 44.8344L31.9761 44.8344L31.951 44.8343L31.8518 44.8342C31.7646 44.834 31.6361 44.8336 31.4714 44.8328C31.142 44.8313 30.6677 44.8283 30.0893 44.8222C28.9322 44.81 27.3597 44.7856 25.6964 44.7369C24.032 44.6882 22.2826 44.6153 20.7702 44.5064C19.2364 44.396 18.0097 44.2525 17.3524 44.0777L17.3512 44.0773C15.9652 43.7112 14.9071 42.6394 14.5051 41.2261C14.1378 39.8408 13.9445 37.6337 13.8468 35.7178C13.7984 34.7697 13.7742 33.9119 13.7621 33.2911C13.756 32.9808 13.753 32.7302 13.7515 32.5575C13.7507 32.4711 13.7504 32.4043 13.7502 32.3593L13.75 32.3085L13.75 32.2959L13.75 32.2929L13.75 32.2923V32.2922V32.2922V32.2921L13.75 32.2914L13.75 32.2885L13.75 32.2759L13.7502 32.2254C13.7504 32.1806 13.7507 32.1141 13.7515 32.0282C13.753 31.8563 13.756 31.6068 13.7621 31.2977C13.7742 30.6793 13.7984 29.8245 13.8468 28.8784C13.9446 26.9646 14.1382 24.7529 14.5071 23.351C14.8765 21.9527 15.9565 20.8749 17.3213 20.5067C17.988 20.3316 19.2207 20.1882 20.7568 20.0779C22.2738 19.9691 24.0261 19.8961 25.6925 19.8474C27.3577 19.7987 28.9312 19.7744 30.0888 19.7622C30.6675 19.7561 31.1419 19.753 31.4714 19.7515C31.6361 19.7508 31.7646 19.7504 31.8518 19.7502L31.951 19.75L31.9761 19.75L31.9824 19.75L31.9839 19.75L31.9843 19.75L31.9844 19L31.9845 19.75L31.9848 19.75L31.9863 19.75L31.9926 19.75L32.0178 19.75L32.1169 19.7502C32.2041 19.7504 32.3326 19.7508 32.4974 19.7515C32.8269 19.753 33.3012 19.7561 33.8799 19.7622C35.0375 19.7744 36.611 19.7987 38.2762 19.8474C39.9426 19.8961 41.695 19.9691 43.2119 20.0779C44.7431 20.1878 45.9729 20.3307 46.641 20.505C48.0221 20.9064 49.0949 21.9636 49.4615 23.3506C49.8309 24.7539 50.0321 26.9749 50.1378 28.8969C50.19 29.8471 50.2181 30.7061 50.2331 31.3275C50.2406 31.6381 50.2449 31.889 50.2472 32.0618C50.2484 32.1481 50.2491 32.215 50.2495 32.26L50.2499 32.3109L50.25 32.3235L50.25 32.3236V32.3242Z" fill="#F7F7F7" stroke="#101131" stroke-width="1.5"/>
<path d="M28.2 37.9842L38.0831 32.292L28.2 26.5999V37.9842Z" fill="#101131"/>
</svg>
