<svg width="65" height="65" viewBox="0 0 65 65" fill="none" xmlns="http://www.w3.org/2000/svg">
<rect width="65" height="65" fill="#F7F7F7"/>
<path d="M53.7826 44.8913H51.3043V42.413C51.3043 41.957 50.9343 41.587 50.4783 41.587H49.6522V18.4565H50.4783H53.7826V16.8043H51.3043V14.3261C51.3043 13.8701 50.9343 13.5 50.4783 13.5H14.1304C13.6744 13.5 13.3043 13.8701 13.3043 14.3261V16.8043H10.8261V18.4565H14.1304H14.9565V41.587H14.1304C13.6744 41.587 13.3043 41.957 13.3043 42.413V44.8913H10.8261C10.3701 44.8913 10 45.2614 10 45.7174V50.6739C10 51.1299 10.3701 51.5 10.8261 51.5H53.7826C54.2386 51.5 54.6087 51.1299 54.6087 50.6739V45.7174C54.6087 45.2614 54.2386 44.8913 53.7826 44.8913ZM14.9565 15.1522H49.6522V16.8043H48.8261H15.7826H14.9565V15.1522ZM44.4544 25.3064C44.309 25.1627 40.8081 21.7609 32.3043 21.7609C23.799 21.7609 20.2997 25.1627 20.1543 25.3064C20.0006 25.4617 19.913 25.6716 19.913 25.8913V41.587H16.6087V18.4565H48V41.587H44.6957V25.8913C44.6957 25.6716 44.6081 25.4617 44.4544 25.3064ZM38.4653 35.2195C35.4534 32.2059 35.4022 27.5881 35.4022 27.5418C35.4005 27.2775 35.2733 27.028 35.0585 26.8727C34.8404 26.7174 34.5678 26.6728 34.315 26.7603C28.8943 28.5662 28.7951 35.4144 28.7935 35.7977C28.7836 36.1777 28.6316 36.6304 27.9674 36.6304C27.4668 36.6304 27.143 35.1617 27.1413 34.1522C27.1413 33.8184 26.9381 33.5177 26.6308 33.3905C26.3202 33.265 25.9666 33.3327 25.732 33.569C25.6543 33.6466 23.8386 35.5037 23.8386 39.1103C23.8386 40.1859 24.1476 40.979 24.5903 41.5886H21.5652V26.2746C22.4458 25.5857 25.7452 23.4147 32.3043 23.4147C38.8701 23.4147 42.1695 25.589 43.0435 26.273V41.5886H40.6511C40.9386 40.1677 40.932 37.6878 38.4653 35.2195ZM38.956 41.587H27.9723C27.5577 41.582 25.4891 41.4416 25.4891 39.1087C25.4891 38.0794 25.661 37.2351 25.8873 36.5726C26.2607 37.554 26.9199 38.2826 27.9674 38.2826C29.7864 38.2826 30.4457 36.8006 30.4457 35.8043C30.4457 35.7498 30.487 30.7272 33.8392 28.7777C34.054 30.5537 34.7909 33.8845 37.2956 36.3892C39.4682 38.5602 39.2137 40.6799 38.956 41.587ZM14.9565 43.2391H15.7826H27.9674H39.5326H48.8261H49.6522V44.8913H14.9565V43.2391ZM52.9565 49.8478H11.6522V46.5435H14.1304H50.4783H52.9565V49.8478Z" fill="#101131"/>
</svg>
