<svg width="65" height="65" viewBox="0 0 65 65" fill="none" xmlns="http://www.w3.org/2000/svg">
<rect width="65" height="65" fill="#F7F7F7"/>
<rect width="65" height="65" fill="#F7F7F7"/>
<path d="M32.007 14C21.5167 14 13 22.5137 13 33C13 43.4864 21.5167 52 32.007 52C42.4972 52 51 43.4864 51 33C51 22.5136 42.4972 14 32.007 14V14ZM31.4488 15.3531V23.8209L22.7966 23.7651C23.2422 22.5369 23.772 21.4188 24.3735 20.417C26.2392 17.3096 28.7376 15.4379 31.4488 15.3531ZM35.4399 15.3531C40.6018 16.3492 44.9626 19.5574 47.5252 23.9464L41.6082 23.9044C41.1073 22.4222 40.4883 21.0618 39.7661 19.8589C38.5775 17.8794 37.1078 16.311 35.4399 15.353V15.3531ZM32.4814 15.4089C34.9426 15.7473 37.1985 17.5585 38.9148 20.417C39.5366 21.4526 40.079 22.6141 40.5336 23.8906L32.4814 23.8348V15.4089ZM27.4297 15.6182C25.935 16.5879 24.5965 18.0466 23.5083 19.859C22.8112 21.02 22.2135 22.3287 21.722 23.7511L16.6144 23.7091C18.9997 19.768 22.86 16.8166 27.4297 15.6181V15.6182ZM16.0423 24.7415C16.0563 24.7421 16.0703 24.7421 16.0843 24.7415L21.4012 24.7835C20.7129 27.1027 20.3182 29.6834 20.2708 32.4142H14.0468C14.1358 29.6536 14.8453 27.051 16.0424 24.7416L16.0423 24.7415ZM22.4477 24.7835L31.4488 24.8532V32.4142H21.2754C21.3251 29.6643 21.7359 27.073 22.4477 24.7835ZM32.4814 24.8672L40.8685 24.923C41.5546 27.1782 41.9643 29.7197 42.0129 32.4142H32.4814V24.8672ZM41.9431 24.9369L48.0973 24.9789C49.2182 27.2272 49.8816 29.7502 49.9673 32.4143H43.0176C42.9713 29.7446 42.6034 27.216 41.9431 24.9371V24.9369ZM14.0327 33.4325H20.2707C20.31 36.0259 20.6549 38.486 21.2754 40.7145L15.7632 40.6725C15.7586 40.6725 15.7539 40.6725 15.7493 40.6725C14.709 38.4701 14.0943 36.0162 14.0329 33.4324L14.0327 33.4325ZM21.2754 33.4325H31.4488V40.7842L22.3221 40.7145C21.6805 38.51 21.3165 36.042 21.2754 33.4325ZM32.4814 33.4325H42.0129C41.9709 36.0974 41.577 38.6142 40.9104 40.854L32.4814 40.7982V33.4325ZM43.0176 33.4325H49.9673C49.9038 36.1092 49.2617 38.6467 48.1531 40.9098L41.971 40.8678C42.6178 38.5996 42.9775 36.0849 43.0176 33.4324V33.4325ZM16.2795 41.7049L21.5825 41.7469C22.0974 43.3272 22.7447 44.7857 23.5083 46.0574C24.6444 47.9497 26.0492 49.4689 27.625 50.4378C22.7451 49.2173 18.6609 45.9959 16.2795 41.705V41.7049ZM22.657 41.7607L31.4488 41.8165V50.5632C28.7376 50.4785 26.2392 48.6207 24.3735 45.5133C23.709 44.4065 23.1293 43.1406 22.657 41.7607V41.7607ZM32.4814 41.8305L40.5755 41.8863C40.1114 43.2163 39.5588 44.4407 38.9148 45.5133C37.1984 48.3719 34.9429 50.1832 32.4814 50.5213V41.8305V41.8305ZM41.65 41.9003L47.5949 41.9422C45.006 46.4519 40.5187 49.7202 35.2167 50.675C36.9734 49.7283 38.5263 48.1223 39.7661 46.0574C40.5053 44.8264 41.1432 43.4217 41.65 41.9004V41.9003Z" fill="#101131"/>
</svg>
