<svg width="65" height="65" viewBox="0 0 65 65" fill="none" xmlns="http://www.w3.org/2000/svg">
<rect width="65" height="65" fill="#F7F7F7"/>
<path d="M31.3333 49.6666H4.66667L4 49V22.3333L4.66667 21.6666H31.3333L32 22.3333V49L31.3333 49.6666ZM5.33333 48.3333H30.6667V23H5.33333V48.3333Z" fill="#101131"/>
<path d="M61.3333 49.6666H34.6667L34 49V22.3333L34.6667 21.6666H61.3333L62 22.3333V49L61.3333 49.6666ZM35.3333 48.3333H60.6667V23H35.3333V48.3333Z" fill="#101131"/>
<path d="M58 46.3333H38L37.3333 45.6667V25.6667L38 25H58L58.6666 25.6667V45.6667L58 46.3333ZM38.6666 45H57.3333V26.3333H38.6666V45Z" fill="#101131"/>
<path d="M18 46.3333C15.8903 46.3333 13.828 45.7077 12.0739 44.5357C10.3198 43.3636 8.9526 41.6977 8.14527 39.7486C7.33793 37.7996 7.1267 35.6548 7.53827 33.5857C7.94985 31.5166 8.96574 29.616 10.4575 28.1242C11.9493 26.6324 13.8499 25.6165 15.919 25.205C17.9881 24.7934 20.1329 25.0046 22.0819 25.812C24.031 26.6193 25.6969 27.9865 26.869 29.7406C28.0411 31.4947 28.6666 33.557 28.6666 35.6667C28.6666 38.4956 27.5428 41.2088 25.5425 43.2091C23.5421 45.2095 20.829 46.3333 18 46.3333V46.3333ZM18 26.3333C16.154 26.3333 14.3495 26.8807 12.8147 27.9063C11.2798 28.9318 10.0835 30.3895 9.3771 32.095C8.67068 33.8004 8.48586 35.677 8.84599 37.4875C9.20612 39.298 10.095 40.961 11.4003 42.2663C12.7056 43.5716 14.3687 44.4605 16.1791 44.8207C17.9896 45.1808 19.8662 44.996 21.5717 44.2895C23.2771 43.5831 24.7348 42.3869 25.7604 40.852C26.7859 39.3171 27.3333 37.5126 27.3333 35.6667C27.3333 33.1913 26.35 30.8174 24.5996 29.067C22.8493 27.3167 20.4753 26.3333 18 26.3333V26.3333Z" fill="#101131"/>
<path d="M31.3333 23H4.66667L4 22.3333V15.6667L4.66667 15H31.3333L32 15.6667V22.3333L31.3333 23ZM5.33333 21.6667H30.6667V16.3333H5.33333V21.6667Z" fill="#101131"/>
<path d="M61.3333 23H34.6667L34 22.3333V15.6667L34.6667 15H61.3333L62 15.6667V22.3333L61.3333 23ZM35.3333 21.6667H60.6667V16.3333H35.3333V21.6667Z" fill="#101131"/>
<path d="M54.6666 28.3334H41.3333V29.6667H54.6666V28.3334Z" fill="#101131"/>
<path d="M28 18.3334H24.6667V19.6667H28V18.3334Z" fill="#101131"/>
<path d="M11.2733 18.3334H7.94V19.6667H11.2733V18.3334Z" fill="#101131"/>
<path d="M58 18.3334H54.6666V19.6667H58V18.3334Z" fill="#101131"/>
</svg>
