<svg width="65" height="65" viewBox="0 0 65 65" fill="none" xmlns="http://www.w3.org/2000/svg">
<rect width="65" height="65" fill="#F7F7F7"/>
<path d="M27.5007 41.6216C25.8224 41.6216 24.4565 42.9874 24.4565 44.6658C24.4565 46.3442 25.8224 47.71 27.5007 47.71C29.1791 47.71 30.5449 46.3442 30.5449 44.6658C30.5449 42.9874 29.1796 41.6216 27.5007 41.6216ZM27.5007 46.3C26.5998 46.3 25.8665 45.5668 25.8665 44.6658C25.8665 43.7648 26.5998 43.0316 27.5007 43.0316C28.4017 43.0316 29.1349 43.7648 29.1349 44.6658C29.1349 45.5668 28.4022 46.3 27.5007 46.3Z" fill="#101131"/>
<path d="M53.3607 43.3521L54.0244 41.2174C54.2725 40.4193 54.1583 39.5564 53.7109 38.8504C53.2634 38.144 52.5316 37.6726 51.704 37.5565L47.7315 36.9991V33.0624C48.0868 33.0262 48.3651 32.7296 48.3651 32.3649V31.1278C48.3651 29.5594 47.0895 28.2839 45.5211 28.2839H33.6155C32.0471 28.2839 30.7715 29.5594 30.7715 31.1278V32.3649C30.7715 32.7301 31.0497 33.0267 31.4055 33.0628V34.7078L23.987 33.6663L21.6276 24.3673C21.6276 24.3673 21.6276 24.3669 21.6271 24.3669L19.2757 15.1008C19.2104 14.8442 19.0069 14.6458 18.7488 14.5871L11.8614 13.0182C11.4826 12.9303 11.1038 13.1695 11.0178 13.5488C10.9313 13.9286 11.1686 14.306 11.5484 14.3925L18.0147 15.8655L20.1321 24.2089L14.8074 27.4482C14.532 27.616 14.4056 27.9492 14.5 28.2575L19.0252 42.9949C19.0868 43.1961 19.2353 43.3592 19.4299 43.4395L21.1924 44.1685C21.1797 44.333 21.167 44.498 21.167 44.6658C21.167 48.1584 24.0086 51 27.5012 51C29.7314 51 31.6922 49.8386 32.8212 48.0916H46.0776C46.7093 49.7869 48.3397 51 50.2521 51C52.7102 51 54.7106 49.0001 54.7106 46.542C54.7101 45.2923 54.1917 44.1624 53.3607 43.3521ZM32.181 31.1278C32.181 30.3368 32.8245 29.6939 33.615 29.6939H45.5211C46.3116 29.6939 46.9551 30.3373 46.9551 31.1278V31.6599H32.181V31.1278ZM32.8151 34.9052V33.0699H46.3215V36.8012L43.5133 36.4069L32.8151 34.9052ZM20.2754 42.2636L16.0087 28.368L20.4949 25.6392L22.7363 34.4719C22.7363 34.4719 22.7363 34.4719 22.7363 34.4724L23.9861 39.3971C23.8079 39.5155 23.6392 39.6448 23.4757 39.7792C23.4738 39.7806 23.4724 39.782 23.4705 39.7834C23.3173 39.9094 23.172 40.0428 23.0324 40.1815C23.0249 40.189 23.0174 40.197 23.0099 40.2045C22.8783 40.3371 22.7528 40.4748 22.6339 40.6181C22.6207 40.6341 22.608 40.6501 22.5949 40.6661C22.4858 40.8 22.3824 40.9382 22.2847 41.0806C22.2654 41.1088 22.2457 41.1365 22.2269 41.1647C22.1427 41.2921 22.0638 41.4228 21.989 41.5562C21.9627 41.6023 21.9355 41.6479 21.9105 41.6944C21.8541 41.8016 21.8029 41.9116 21.7526 42.022C21.7178 42.0972 21.6812 42.1705 21.6492 42.2472C21.6436 42.2613 21.6394 42.2758 21.6332 42.2899C21.5712 42.4427 21.5129 42.5968 21.4626 42.7552L20.2754 42.2636ZM27.5008 49.59C24.7856 49.59 22.5765 47.381 22.5765 44.6658C22.5765 44.3852 22.6057 44.1116 22.6508 43.8433C22.6508 43.8419 22.6517 43.8409 22.6517 43.8395C22.7448 43.2891 22.9281 42.7689 23.1875 42.2942C23.219 42.2373 23.2548 42.1837 23.2886 42.1282C23.3398 42.0432 23.3911 41.9581 23.4475 41.8758C23.502 41.7964 23.5612 41.7207 23.6204 41.6446C23.6627 41.5901 23.705 41.5356 23.7497 41.4829C23.8159 41.4049 23.8855 41.3297 23.9565 41.2554C24.0025 41.2075 24.0495 41.161 24.0979 41.1149C24.1703 41.0458 24.2436 40.9777 24.3198 40.9133C24.3785 40.8635 24.4401 40.8165 24.5017 40.769C24.5726 40.714 24.6431 40.6585 24.7169 40.6078C24.8105 40.5439 24.9082 40.4851 25.0069 40.4268C25.0558 40.3982 25.1023 40.3657 25.1522 40.3385C25.3134 40.2506 25.4797 40.174 25.6494 40.1054C25.6997 40.0847 25.7514 40.0682 25.8026 40.0494C25.9319 40.002 26.0625 39.9592 26.1951 39.9225C26.251 39.907 26.3069 39.8924 26.3638 39.8793C26.5006 39.8469 26.6383 39.8215 26.7774 39.8008C26.8286 39.7933 26.8789 39.7834 26.9302 39.7773C27.1196 39.7552 27.3104 39.7411 27.5017 39.7411C30.2169 39.7411 32.4259 41.9501 32.4259 44.6653C32.4259 44.858 32.4118 45.0502 32.3892 45.2406C32.3836 45.2899 32.3742 45.3384 32.3667 45.3872C32.3451 45.5311 32.3187 45.6739 32.2844 45.8154C32.2722 45.8666 32.2591 45.9179 32.245 45.9686C32.205 46.1134 32.158 46.2563 32.1054 46.3968C32.0903 46.4363 32.0776 46.4767 32.0617 46.5157C31.9902 46.6915 31.9098 46.8635 31.8182 47.0304C30.9797 48.5546 29.3591 49.59 27.5008 49.59ZM45.796 46.6816H33.5055C33.5121 46.6623 33.5163 46.6421 33.5229 46.6229C33.5492 46.5425 33.5708 46.4607 33.5939 46.3794C33.623 46.276 33.6503 46.1726 33.6742 46.0683C33.693 45.9851 33.7104 45.9014 33.7259 45.8168C33.7475 45.7007 33.7645 45.5837 33.7795 45.4662C33.7884 45.3938 33.7992 45.3224 33.8063 45.2495C33.8242 45.0559 33.8359 44.8618 33.8359 44.6667C33.8359 41.1741 30.9943 38.3325 27.5017 38.3325C27.2991 38.3325 27.097 38.3438 26.8959 38.3631C26.8127 38.371 26.7314 38.3856 26.6491 38.3964C26.534 38.4119 26.4183 38.4274 26.3041 38.4491C26.2101 38.4669 26.118 38.4904 26.0259 38.5125C25.9239 38.537 25.8219 38.5614 25.7213 38.591C25.632 38.6173 25.5451 38.6469 25.4572 38.6765C25.3961 38.6972 25.3336 38.7137 25.2734 38.7362L24.3616 35.1426L46.3718 38.2319L46.9288 38.3099L51.5085 38.9529C51.9258 39.0117 52.2948 39.2495 52.5204 39.6057C52.746 39.9615 52.8038 40.3968 52.6783 40.7991L52.1472 42.5066C52.1237 42.4953 52.0988 42.4878 52.0753 42.4775C51.9926 42.4403 51.908 42.4065 51.8224 42.3745C51.7599 42.351 51.6983 42.3266 51.6349 42.3059C51.5522 42.2791 51.468 42.257 51.3834 42.2349C51.3176 42.2175 51.2523 42.1983 51.1856 42.1842C51.092 42.164 50.9962 42.1508 50.9003 42.1367C50.842 42.1282 50.7842 42.116 50.7254 42.1099C50.5699 42.0935 50.4119 42.0841 50.2521 42.0841C47.794 42.0841 45.7942 44.0839 45.7942 46.5425C45.7937 46.5881 45.7942 46.6346 45.796 46.6816ZM50.2517 49.59C48.8078 49.59 47.5976 48.58 47.2845 47.2296C47.2845 47.2292 47.2845 47.2287 47.2845 47.2282C47.231 46.9951 47.2037 46.7643 47.2037 46.542C47.2037 44.8613 48.5709 43.4936 50.2517 43.4936C50.4039 43.4936 50.5534 43.5086 50.701 43.5307C50.7311 43.5354 50.7616 43.5392 50.7917 43.5444C50.9341 43.5702 51.0746 43.605 51.2114 43.6506C51.2335 43.6581 51.2551 43.667 51.2772 43.6745C51.5728 43.7812 51.853 43.9326 52.1096 44.1304C52.832 44.6883 53.3001 45.5607 53.3001 46.5416C53.3001 48.2228 51.9324 49.59 50.2517 49.59Z" fill="#101131"/>
<path d="M50.2521 44.4336C49.0894 44.4336 48.1437 45.3792 48.1437 46.542C48.1437 47.7043 49.0894 48.65 50.2521 48.65C51.4145 48.65 52.3601 47.7043 52.3601 46.542C52.3601 45.3792 51.4145 44.4336 50.2521 44.4336ZM50.2521 47.24C49.8672 47.24 49.5537 46.9265 49.5537 46.542C49.5537 46.1571 49.8672 45.8436 50.2521 45.8436C50.6371 45.8436 50.9501 46.1571 50.9501 46.542C50.9501 46.9265 50.6366 47.24 50.2521 47.24Z" fill="#101131"/>
<path d="M42.993 39.1602H36.4252C36.0355 39.1602 35.7202 39.4755 35.7202 39.8652C35.7202 40.2548 36.0355 40.5702 36.4252 40.5702H42.993C43.3826 40.5702 43.698 40.2548 43.698 39.8652C43.698 39.4755 43.3821 39.1602 42.993 39.1602Z" fill="#101131"/>
<path d="M42.993 41.441H36.4252C36.0355 41.441 35.7202 41.7564 35.7202 42.146C35.7202 42.5357 36.0355 42.851 36.4252 42.851H42.993C43.3826 42.851 43.698 42.5357 43.698 42.146C43.698 41.7564 43.3821 41.441 42.993 41.441Z" fill="#101131"/>
<path d="M42.993 43.722H36.4252C36.0355 43.722 35.7202 44.0374 35.7202 44.427C35.7202 44.8167 36.0355 45.1321 36.4252 45.1321H42.993C43.3826 45.1321 43.698 44.8167 43.698 44.427C43.698 44.0374 43.3821 43.722 42.993 43.722Z" fill="#101131"/>
</svg>
