<svg width="65" height="65" viewBox="0 0 65 65" fill="none" xmlns="http://www.w3.org/2000/svg">
<g clip-path="url(#clip0)">
<rect width="65" height="65" fill="white"/>
<rect width="65" height="66.0156" fill="#F7F7F7"/>
<path d="M49.993 13H14.5899C14.3841 13 14.1096 13.1372 14.041 13.3431C13.9724 13.5489 13.9724 13.8233 14.1783 13.9605L49.5814 52.7942C49.7186 52.9314 49.8558 53 50.0616 53C50.1302 53 50.1988 53 50.2675 52.9314C50.4733 52.8628 50.6791 52.5883 50.6791 52.3825V13.6175C50.6105 13.2744 50.3361 13 49.993 13ZM15.9621 14.235H19.3241V15.6758C19.3241 16.0189 19.5985 16.2933 19.9416 16.2933C20.2846 16.2933 20.559 16.0189 20.559 15.6758V14.235H23.0976V15.6758C23.0976 16.0189 23.3721 16.2933 23.7151 16.2933C24.0582 16.2933 24.3326 16.0189 24.3326 15.6758V14.235H26.8712V15.6758C26.8712 16.0189 27.1457 16.2933 27.4887 16.2933C27.8318 16.2933 28.1062 16.0189 28.1062 15.6758V14.235H30.6448V15.6758C30.6448 16.0189 30.9193 16.2933 31.2623 16.2933C31.6054 16.2933 31.8798 16.0189 31.8798 15.6758V14.235H34.4184V15.6758C34.4184 16.0189 34.6928 16.2933 35.0359 16.2933C35.379 16.2933 35.6534 16.0189 35.6534 15.6758V14.235H38.192V15.6758C38.192 16.0189 38.4664 16.2933 38.8095 16.2933C39.1525 16.2933 39.427 16.0189 39.427 15.6758V14.235H41.9656V15.6758C41.9656 16.0189 42.24 16.2933 42.5831 16.2933C42.9261 16.2933 43.2006 16.0189 43.2006 15.6758V14.235H45.4647V15.6758C45.4647 16.0189 45.7392 16.2933 46.0822 16.2933C46.4253 16.2933 46.6997 16.0189 46.6997 15.6758V14.235H49.4441V17.3225H48.1405C47.7975 17.3225 47.523 17.5969 47.523 17.94C47.523 18.283 47.7975 18.5575 48.1405 18.5575H49.4441V21.096H48.1405C47.7975 21.096 47.523 21.3705 47.523 21.7136C47.523 22.0566 47.7975 22.3311 48.1405 22.3311H49.4441V24.8696H48.1405C47.7975 24.8696 47.523 25.1441 47.523 25.4871C47.523 25.8302 47.7975 26.1046 48.1405 26.1046H49.4441V28.6432H48.1405C47.7975 28.6432 47.523 28.9177 47.523 29.2607C47.523 29.6038 47.7975 29.8782 48.1405 29.8782H49.4441V32.4168H48.1405C47.7975 32.4168 47.523 32.6913 47.523 33.0343C47.523 33.3774 47.7975 33.6518 48.1405 33.6518H49.4441V35.9846H48.1405C47.7975 35.9846 47.523 36.259 47.523 36.6021C47.523 36.9451 47.7975 37.2196 48.1405 37.2196H49.4441V39.7582H48.1405C47.7975 39.7582 47.523 40.0326 47.523 40.3756C47.523 40.7187 47.7975 40.9931 48.1405 40.9931H49.4441V43.5317H48.1405C47.7975 43.5317 47.523 43.8062 47.523 44.1492C47.523 44.4923 47.7975 44.7667 48.1405 44.7667H49.4441V50.9417L15.9621 14.235Z" fill="#446CEB"/>
<path d="M42.3086 20.6844H32.017C31.8112 20.6844 31.5368 20.8217 31.4682 21.0275C31.3996 21.2333 31.3995 21.5078 31.5368 21.645L41.8284 33.1716C41.9656 33.3088 42.1028 33.3774 42.3086 33.3774C42.3773 33.3774 42.4459 33.3774 42.5145 33.3088C42.7203 33.2402 42.9261 32.9657 42.9261 32.7599V21.3019C42.9261 20.9589 42.6517 20.6844 42.3086 20.6844ZM41.7598 31.2505L33.3893 21.9194H41.7598V31.2505Z" fill="#446CEB"/>
</g>
<defs>
<clipPath id="clip0">
<rect width="65" height="65" fill="white"/>
</clipPath>
</defs>
</svg>
