<svg width="65" height="65" viewBox="0 0 65 65" fill="none" xmlns="http://www.w3.org/2000/svg">
<rect width="65" height="65" fill="#F7F7F7"/>
<path d="M46.1068 17.662H37.1376V16.6536C37.1376 15.9498 36.858 15.2749 36.3603 14.7772C35.8627 14.2796 35.1877 14 34.4839 14H31.2863C30.5825 14 29.9076 14.2796 29.4099 14.7772C28.9123 15.2749 28.6327 15.9498 28.6327 16.6536V17.662H19.6634C19.4875 17.662 19.3187 17.7319 19.1943 17.8563C19.0699 17.9807 19 18.1495 19 18.3254V22.8034C19 22.9794 19.0699 23.1481 19.1943 23.2725C19.3187 23.3969 19.4875 23.4668 19.6634 23.4668H20.0416L21.2224 48.8422C21.2634 49.694 21.6308 50.4974 22.2485 51.0854C22.8662 51.6734 23.6866 52.001 24.5395 52H41.2374C42.0903 52.001 42.9107 51.6734 43.5284 51.0854C44.1461 50.4974 44.5135 49.694 44.5545 48.8422L45.7353 23.4668H46.1135C46.2894 23.4668 46.4582 23.3969 46.5826 23.2725C46.707 23.1481 46.7769 22.9794 46.7769 22.8034V18.3254C46.7769 18.2377 46.7595 18.1509 46.7258 18.07C46.692 17.9891 46.6425 17.9156 46.5802 17.854C46.5179 17.7923 46.444 17.7435 46.3628 17.7106C46.2815 17.6776 46.1945 17.6611 46.1068 17.662ZM29.9595 16.6536C29.9595 16.3017 30.0993 15.9643 30.3481 15.7154C30.5969 15.4666 30.9344 15.3268 31.2863 15.3268H34.4839C34.8358 15.3268 35.1733 15.4666 35.4221 15.7154C35.671 15.9643 35.8108 16.3017 35.8108 16.6536V17.662H29.9595V16.6536ZM20.3268 18.9888H45.4434V22.14H20.3268V18.9888ZM43.2277 48.7758C43.2038 49.2874 42.9836 49.7701 42.6129 50.1235C42.2422 50.4769 41.7496 50.6737 41.2374 50.6732H24.5328C24.0207 50.6737 23.528 50.4769 23.1574 50.1235C22.7867 49.7701 22.5665 49.2874 22.5426 48.7758L21.3684 23.4668H44.4019L43.2277 48.7758ZM28.2413 46.1421L27.7105 28.0377C27.7079 27.9506 27.7225 27.8638 27.7534 27.7823C27.7844 27.7008 27.831 27.6262 27.8908 27.5628C27.9505 27.4993 28.0222 27.4483 28.1017 27.4125C28.1812 27.3768 28.2669 27.357 28.3541 27.3544C28.4412 27.3518 28.528 27.3664 28.6094 27.3973C28.6909 27.4282 28.7655 27.4749 28.829 27.5346C28.8924 27.5944 28.9435 27.6661 28.9792 27.7455C29.015 27.825 29.0347 27.9108 29.0374 27.9979L29.5681 46.1023C29.5681 46.2782 29.4982 46.447 29.3738 46.5714C29.2494 46.6958 29.0806 46.7657 28.9047 46.7657C28.7354 46.766 28.5724 46.7016 28.4491 46.5857C28.3258 46.4698 28.2514 46.3111 28.2413 46.1421ZM36.2022 46.1023L36.7329 27.9979C36.7382 27.822 36.8131 27.6553 36.9413 27.5346C37.0694 27.414 37.2403 27.3491 37.4162 27.3544C37.5921 27.3597 37.7588 27.4346 37.8795 27.5628C38.0002 27.6909 38.065 27.8618 38.0597 28.0377L37.529 46.1421C37.529 46.3181 37.4591 46.4868 37.3347 46.6112C37.2103 46.7356 37.0415 46.8055 36.8656 46.8055C36.775 46.8057 36.6854 46.7873 36.6022 46.7515C36.519 46.7157 36.444 46.6632 36.3818 46.5974C36.3197 46.5315 36.2717 46.4536 36.2408 46.3684C36.2099 46.2833 36.1967 46.1927 36.2022 46.1023Z" fill="#101131"/>
</svg>
