<svg width="65" height="65" viewBox="0 0 65 65" fill="none" xmlns="http://www.w3.org/2000/svg">
<rect width="65" height="65" fill="#F7F7F7"/>
<path d="M34.4083 27.3685L28.363 27.2657C28.1948 27.2647 28.0289 27.2274 27.8764 27.1565C27.7239 27.0856 27.5885 26.9827 27.4794 26.8548C27.3741 26.7277 27.2981 26.5789 27.2569 26.4191C27.2157 26.2592 27.2103 26.0923 27.241 25.9301C27.4492 24.7855 28.0531 23.7505 28.947 23.0061C29.841 22.2616 30.9682 21.855 32.1315 21.8574H32.2178C32.9585 21.8672 33.6874 22.0437 34.3505 22.3739C35.0136 22.704 35.5938 23.1792 36.048 23.7643C36.2747 24.0494 36.4677 24.3597 36.6234 24.689L36.7795 25.0136L34.4083 27.3685ZM32.1315 22.8479C31.2085 22.8444 30.3137 23.1657 29.6037 23.7555C28.8937 24.3453 28.4138 25.166 28.2479 26.0739C28.2462 26.0902 28.2479 26.1066 28.2529 26.1221C28.2578 26.1377 28.2659 26.1521 28.2767 26.1644C28.289 26.1801 28.3045 26.193 28.3222 26.2022C28.34 26.2114 28.3595 26.2167 28.3794 26.2178L33.9891 26.3123L35.5261 24.7753C35.44 24.6317 35.3439 24.4944 35.2384 24.3643C34.8778 23.9009 34.4176 23.5244 33.892 23.2626C33.3663 23.0009 32.7886 22.8605 32.2014 22.852L32.1315 22.8479Z" fill="#101131"/>
<path d="M32.3206 46.0303H31.8069C30.5652 46.0051 29.3512 45.6587 28.2832 45.0249C27.2151 44.3911 26.3294 43.4916 25.7122 42.4138C25.5336 42.0968 25.3784 41.7672 25.2478 41.4275L25.1287 41.1193L32.526 33.7219L32.3206 46.0303ZM26.3328 41.3577C26.4141 41.5416 26.5046 41.7212 26.604 41.896C27.089 42.744 27.7686 43.4645 28.5867 43.9982C29.4049 44.532 30.3381 44.8637 31.3096 44.9659L31.4616 36.2329L26.3328 41.3577Z" fill="#101131"/>
<path d="M24.8122 36.9645L24.9437 29.2589C24.9554 28.9285 25.0947 28.6155 25.3322 28.3857C25.5698 28.1558 25.8872 28.0269 26.2177 28.026V28.026L32.6124 28.137V29.1808L24.8122 36.9645ZM26.2177 29.037C26.1534 29.038 26.0918 29.0637 26.0459 29.1089C26 29.154 25.9733 29.2151 25.9711 29.2794L25.8807 34.4412L31.1863 29.1233L26.2095 29.037H26.2177Z" fill="#101131"/>
<path d="M31.5644 30.2123L31.6055 28.1L33.6315 28.1452L31.5644 30.2123Z" fill="#101131"/>
<path d="M31.9301 46.0222H31.2932L31.4904 34.7494L38.0659 28.174L38.3618 28.2644C38.6237 28.3464 38.8522 28.5106 39.0136 28.7327C39.1749 28.9547 39.2605 29.2228 39.2577 29.4973V29.5795L39.0933 38.9823C39.0557 40.859 38.2851 42.6464 36.9464 43.9621C35.6077 45.2778 33.8072 46.0172 31.9301 46.0222V46.0222ZM32.5096 35.185L32.337 44.9824C33.8644 44.8716 35.2959 44.1963 36.3526 43.0879C37.4094 41.9795 38.0157 40.5174 38.0535 38.9865L38.222 29.4973L32.5096 35.185Z" fill="#101131"/>
<path d="M40.2275 31.137C41.7399 31.1616 43.3344 30.9644 43.8029 29.2383C44.0947 28.1821 43.9262 26.9123 43.9427 25.8273C43.9427 25.6911 43.8886 25.5604 43.7922 25.4641C43.6959 25.3677 43.5652 25.3136 43.429 25.3136C43.2927 25.3136 43.1621 25.3677 43.0657 25.4641C42.9694 25.5604 42.9153 25.6911 42.9153 25.8273C42.9153 26.6986 42.9153 27.578 42.8701 28.4493C42.7673 30.052 41.4974 30.1301 40.2275 30.0931C40.0913 30.0931 39.9606 30.1473 39.8643 30.2436C39.768 30.3399 39.7138 30.4706 39.7138 30.6068C39.7138 30.7431 39.768 30.8737 39.8643 30.9701C39.9606 31.0664 40.0913 31.1205 40.2275 31.1205V31.137Z" fill="#101131"/>
<path d="M40.1494 35.1192L44.481 35.1973C44.6173 35.1973 44.7479 35.1432 44.8443 35.0468C44.9406 34.9505 44.9947 34.8198 44.9947 34.6836C44.9947 34.5473 44.9406 34.4167 44.8443 34.3203C44.7479 34.224 44.6173 34.1699 44.481 34.1699L40.1494 34.0918C40.0132 34.0918 39.8825 34.1459 39.7862 34.2423C39.6899 34.3386 39.6357 34.4693 39.6357 34.6055C39.6357 34.7417 39.6899 34.8724 39.7862 34.9688C39.8825 35.0651 40.0132 35.1192 40.1494 35.1192V35.1192Z" fill="#101131"/>
<path d="M40.0878 38.7604C41.0084 38.7604 42.0563 38.6947 42.5166 39.7016C42.8084 40.3386 42.6399 41.255 42.6276 41.9372C42.6276 42.0735 42.6817 42.2041 42.778 42.3005C42.8744 42.3968 43.005 42.4509 43.1413 42.4509C43.2775 42.4509 43.4082 42.3968 43.5045 42.3005C43.6009 42.2041 43.655 42.0735 43.655 41.9372C43.655 40.8934 43.8399 39.7632 43.207 38.8591C42.4468 37.77 41.2796 37.7536 40.0878 37.733C39.9516 37.733 39.8209 37.7872 39.7246 37.8835C39.6282 37.9798 39.5741 38.1105 39.5741 38.2467C39.5741 38.383 39.6282 38.5136 39.7246 38.61C39.8209 38.7063 39.9516 38.7604 40.0878 38.7604V38.7604Z" fill="#101131"/>
<path d="M23.9369 29.826C22.6218 29.8013 21.3971 29.6287 21.3724 28.0054C21.3724 27.1506 21.4012 26.2876 21.4176 25.4328C21.4176 25.2965 21.3635 25.1659 21.2672 25.0695C21.1708 24.9732 21.0402 24.9191 20.9039 24.9191C20.7677 24.9191 20.637 24.9732 20.5407 25.0695C20.4443 25.1659 20.3902 25.2965 20.3902 25.4328C20.3902 26.489 20.1888 27.6766 20.3902 28.7205C20.7478 30.5493 22.3629 30.8246 23.9327 30.8534C24.069 30.8534 24.1997 30.7993 24.296 30.703C24.3923 30.6066 24.4464 30.476 24.4464 30.3397C24.4464 30.2035 24.3923 30.0728 24.296 29.9765C24.1997 29.8801 24.069 29.826 23.9327 29.826H23.9369Z" fill="#101131"/>
<path d="M23.867 33.8082L19.5354 33.7343C19.3992 33.7343 19.2685 33.7884 19.1722 33.8847C19.0758 33.9811 19.0217 34.1117 19.0217 34.248C19.0217 34.3842 19.0758 34.5149 19.1722 34.6112C19.2685 34.7075 19.3992 34.7617 19.5354 34.7617L23.867 34.8356C24.0032 34.8356 24.1339 34.7815 24.2302 34.6852C24.3266 34.5888 24.3807 34.4582 24.3807 34.3219C24.3807 34.1857 24.3266 34.055 24.2302 33.9587C24.1339 33.8623 24.0032 33.8082 23.867 33.8082Z" fill="#101131"/>
<path d="M29.7931 21.6107L29.8465 18.4915C29.8465 18.3552 29.7924 18.2246 29.6961 18.1282C29.5997 18.0319 29.4691 17.9778 29.3328 17.9778C29.1966 17.9778 29.0659 18.0319 28.9696 18.1282C28.8732 18.2246 28.8191 18.3552 28.8191 18.4915L28.7657 21.6107C28.7657 21.747 28.8198 21.8776 28.9162 21.974C29.0125 22.0703 29.1432 22.1244 29.2794 22.1244C29.4157 22.1244 29.5463 22.0703 29.6427 21.974C29.739 21.8776 29.7931 21.747 29.7931 21.6107Z" fill="#101131"/>
<path d="M35.6823 21.7258L35.7357 18.6066C35.7357 18.4704 35.6816 18.3397 35.5852 18.2434C35.4889 18.147 35.3582 18.0929 35.222 18.0929C35.0857 18.0929 34.9551 18.147 34.8587 18.2434C34.7624 18.3397 34.7083 18.4704 34.7083 18.6066L34.6548 21.7258C34.6548 21.8621 34.709 21.9927 34.8053 22.0891C34.9016 22.1854 35.0323 22.2395 35.1686 22.2395C35.3048 22.2395 35.4355 22.1854 35.5318 22.0891C35.6281 21.9927 35.6823 21.8621 35.6823 21.7258Z" fill="#101131"/>
<path d="M21.1546 40.4084C21.1044 39.8993 21.2515 39.3903 21.5656 38.9865C21.7642 38.7854 22.0068 38.6333 22.2742 38.542C22.5416 38.4507 22.8266 38.4228 23.1067 38.4604C23.2429 38.4604 23.3736 38.4063 23.4699 38.31C23.5663 38.2136 23.6204 38.083 23.6204 37.9467C23.6204 37.8105 23.5663 37.6798 23.4699 37.5835C23.3736 37.4871 23.2429 37.433 23.1067 37.433C22.6914 37.3953 22.273 37.4494 21.8809 37.5915C21.4889 37.7335 21.1329 37.96 20.8382 38.255C20.3314 38.8519 20.0778 39.6231 20.1313 40.4043C20.1313 40.5405 20.1854 40.6712 20.2818 40.7676C20.3781 40.8639 20.5088 40.918 20.645 40.918C20.7813 40.918 20.9119 40.8639 21.0083 40.7676C21.1046 40.6712 21.1587 40.5405 21.1587 40.4043L21.1546 40.4084Z" fill="#101131"/>
<path d="M17.345 42.4098C14.893 38.9459 13.7451 34.7265 14.1041 30.4978C14.4632 26.2692 16.3061 22.3037 19.307 19.3029C22.3079 16.302 26.2733 14.4591 30.502 14.1C34.7306 13.7409 38.95 14.8889 42.4139 17.3409C42.9564 17.7189 43.4701 16.8313 42.9317 16.4532C39.271 13.8821 34.8209 12.6845 30.3643 13.0712C25.9077 13.4578 21.7302 15.404 18.5671 18.5671C15.404 21.7302 13.4578 25.9077 13.0712 30.3643C12.6845 34.8209 13.8821 39.271 16.4532 42.9317C16.8313 43.4701 17.7189 42.9564 17.3409 42.4139L17.345 42.4098Z" fill="#101131"/>
<path d="M46.6715 21.5902C49.1234 25.0541 50.2714 29.2735 49.9123 33.5022C49.5533 37.7308 47.7103 41.6963 44.7095 44.6971C41.7086 47.698 37.7432 49.5409 33.5145 49.9C29.2858 50.2591 25.0664 49.1111 21.6026 46.6591C21.0601 46.2811 20.5464 47.1687 21.0848 47.5468C24.7454 50.1179 29.1956 51.3155 33.6522 50.9288C38.1088 50.5422 42.2862 48.596 45.4494 45.4329C48.6125 42.2698 50.5586 38.0923 50.9453 33.6357C51.332 29.1791 50.1344 24.729 47.5633 21.0683C47.1852 20.5299 46.2975 21.0437 46.6756 21.5861L46.6715 21.5902Z" fill="#101131"/>
<path d="M47.7729 15.508L36.8617 26.4191L19.4861 43.7947L15.5162 47.7647C15.4684 47.8124 15.4305 47.8691 15.4047 47.9315C15.3788 47.9939 15.3655 48.0608 15.3655 48.1284C15.3655 48.2648 15.4197 48.3956 15.5162 48.4921C15.6126 48.5885 15.7434 48.6427 15.8799 48.6427C16.0163 48.6427 16.1471 48.5885 16.2436 48.4921L27.1547 37.5809L44.5303 20.2053L48.5003 16.2354C48.5967 16.1389 48.6509 16.0081 48.6509 15.8717C48.6509 15.7352 48.5967 15.6044 48.5003 15.508C48.4525 15.4602 48.3958 15.4223 48.3334 15.3965C48.271 15.3706 48.2041 15.3573 48.1366 15.3573C48.0002 15.3573 47.8693 15.4115 47.7729 15.508V15.508Z" fill="#101131"/>
</svg>
