<svg width="65" height="65" viewBox="0 0 65 65" fill="none" xmlns="http://www.w3.org/2000/svg">
<rect width="65" height="65" fill="#F7F7F7"/>
<path d="M53.2589 39.1248C53.1478 38.8193 52.8534 38.6193 52.5312 38.6249C50.7816 38.6693 48.121 39.7913 45.7215 41.9464C46.0436 39.6191 46.5713 37.314 47.3045 35.0422C47.8377 33.387 48.5154 31.6762 49.8262 30.3487C50.054 30.121 50.1095 29.7655 49.9595 29.4767C49.8096 29.1878 49.493 29.0268 49.1764 29.0768C46.5769 29.4767 43.0887 32.726 40.417 37.6084C41.0946 33.2704 42.5388 28.4769 45.5882 22.8113C45.7326 22.5392 45.6993 22.2115 45.5049 21.9726C45.3105 21.7393 44.9883 21.6449 44.6939 21.7393C42.2888 22.5225 40.2003 24.1444 38.434 26.0829C38.3563 24.9109 38.1674 23.7334 37.873 22.5725C37.0787 19.4287 35.5457 16.5515 33.4406 14.2464C33.2351 14.0186 32.9129 13.9409 32.6241 14.0464C32.3352 14.1519 32.1408 14.4185 32.1353 14.724C32.0186 18.2122 31.6854 21.3894 31.1299 24.2722C28.9915 21.2394 26.0754 18.7066 22.626 16.9125C22.3317 16.7625 21.9762 16.8181 21.7429 17.0514C21.5096 17.2846 21.4596 17.6457 21.6151 17.9345C26.1476 26.3662 26.9641 32.6149 26.9696 38.2749C23.9869 31.8707 19.61 27.4993 16.4384 27.0105C16.1218 26.9605 15.7996 27.1216 15.6552 27.4104C15.5052 27.6993 15.5608 28.0492 15.7885 28.2825C17.2382 29.7433 17.9825 31.6318 18.5713 33.4537C19.3989 36.0198 19.9877 38.6193 20.3432 41.241C17.6881 38.8026 14.7165 37.5306 12.7724 37.4807C12.4503 37.4695 12.1559 37.6751 12.0448 37.9806C11.9337 38.286 12.0337 38.6304 12.2948 38.8304C14.3888 40.4467 15.9385 42.7352 16.7772 45.4402C17.3049 47.151 17.5659 49.0506 17.5715 51.2501C17.5715 51.6667 17.9103 52 18.3213 52H47.4711C47.8877 52 48.221 51.6667 48.221 51.2501C48.2265 49.2561 48.4654 47.5287 48.9431 45.9734C49.6985 43.5183 51.1037 41.4465 53.0089 39.9802C53.2644 39.7746 53.37 39.4303 53.2589 39.1248ZM33.5517 16.757C35.8457 19.9341 37.0565 23.9278 36.9677 27.8548C36.0067 29.1267 35.168 30.4654 34.457 31.7318C34.0516 29.8099 33.3295 27.9214 32.3019 26.1107C32.9407 23.3001 33.3517 20.2118 33.5517 16.757ZM24.1369 19.5509C29.3469 23.0502 32.7685 28.4658 33.2739 33.998C33.0684 34.4201 32.8796 34.8256 32.7129 35.2033C31.2466 38.486 30.0857 42.0964 29.4191 45.2902C29.1359 44.0849 28.7915 42.9185 28.4027 41.7965C28.6471 35.4977 28.6193 28.849 24.1369 19.5509ZM18.2103 44.9958C17.5882 42.9851 16.6106 41.1799 15.3275 39.6691C17.0105 40.4134 18.9323 41.7631 20.5987 43.6794C20.7764 45.9401 20.7764 48.2174 20.6042 50.5003H19.0601C18.999 48.4563 18.7213 46.6511 18.2103 44.9958ZM22.115 50.4947C22.5538 44.5848 21.8429 38.7026 20.0043 32.9982C19.6433 31.8873 19.2323 30.7487 18.6491 29.6711C20.171 30.7764 21.9595 32.6538 23.6703 35.3533C26.4919 39.8024 28.2805 45.1514 28.7471 50.4947H22.115ZM38.3396 48.7506C38.3452 49.345 38.3452 49.9226 38.3452 50.4947H30.2856C30.3079 47.262 31.5632 41.4688 34.0849 35.8254C35.6512 32.3317 38.7895 26.5384 43.2886 24C38.2452 34.248 38.2952 41.9298 38.3396 48.7506ZM40.6669 50.4947H39.8504C39.8504 49.906 39.8449 49.3172 39.8449 48.7451C39.8338 46.6288 39.8171 44.4959 39.9393 42.2686C40.6669 40.3356 41.5779 38.486 42.6554 36.7863C44.1273 34.4646 45.6548 32.8149 46.9823 31.7929C46.5158 32.7038 46.1714 33.6536 45.8714 34.5812C44.8994 37.5917 44.2773 40.6578 43.9996 43.7461C42.5277 45.5346 41.3001 47.7897 40.6669 50.4947ZM47.51 45.5235C47.049 47.0232 46.7935 48.6562 46.7324 50.4892H42.2111C43.5052 45.5068 47.0712 42.2297 49.9651 40.8578C48.882 42.2019 48.0488 43.7794 47.51 45.5235Z" fill="#101131"/>
</svg>
