<svg width="65" height="65" viewBox="0 0 65 65" fill="none" xmlns="http://www.w3.org/2000/svg">
<g clip-path="url(#clip0)">
<rect width="65" height="65" fill="white"/>
<rect width="65" height="66.0156" fill="#F7F7F7"/>
<path d="M52.7832 29.0262L45.5217 22.7791V16.5854C45.5217 15.1971 44.4004 14.0225 42.9588 14.0225H41.09C39.7018 14.0225 38.5271 15.1438 38.5271 16.5854V16.799L34.8429 13.6487C34.3624 13.2216 33.7216 13.008 33.0809 13.008C33.0275 13.008 32.9741 13.008 32.9207 13.008C32.1732 12.9546 31.4791 13.1682 30.9452 13.6487L12.9514 29.0262C11.8302 29.9873 11.67 31.7492 12.6311 32.8705L14.0193 34.5257C14.6066 35.2198 15.5143 35.4868 16.3686 35.4334V50.3837C16.3686 51.7719 17.4899 52.9466 18.9315 52.9466H26.0863V53H39.5416V52.9466H46.6963C48.0846 52.9466 49.2593 51.8253 49.2593 50.3837V35.4334C49.366 35.4334 49.4194 35.4334 49.5262 35.4334C50.3271 35.4334 51.0746 35.0597 51.6086 34.4723L52.9968 32.8171C54.0647 31.7493 53.9045 29.9873 52.7832 29.0262ZM39.595 16.5854C39.595 15.7845 40.2357 15.1438 41.0366 15.1438H42.9054C43.7063 15.1438 44.347 15.7845 44.347 16.5854V21.818L39.5416 17.7067L39.595 16.5854ZM38.5271 51.8787H27.261V37.7294C27.261 36.9284 27.9017 36.2877 28.7026 36.2877H37.0855C37.8864 36.2877 38.5271 36.9284 38.5271 37.7294C38.5271 37.676 38.5271 51.8787 38.5271 51.8787ZM48.2448 50.4371C48.2448 51.238 47.604 51.8787 46.8031 51.8787H39.6484V37.7294C39.6484 36.3411 38.5271 35.1665 37.0855 35.1665H28.7026C27.3144 35.1665 26.1397 36.2877 26.1397 37.7294V51.8787H18.9849C18.184 51.8787 17.5433 51.238 17.5433 50.4371V35.1131C17.7035 35.0597 17.8103 34.9529 17.9705 34.8461L32.9207 22.0316L47.871 34.8461C47.9778 34.9529 48.138 35.0597 48.2982 35.1131L48.2448 50.4371ZM52.2493 32.1764L50.8611 33.8316C50.3271 34.4723 49.2059 34.5791 48.5651 33.9918L32.9207 20.5899L17.2763 33.9918C16.6356 34.5257 15.5677 34.4723 14.9804 33.8316L13.5922 32.1764C13.0048 31.4823 13.1116 30.4678 13.7523 29.8805L31.7461 14.503C32.013 14.2361 32.3868 14.1293 32.8139 14.1293H33.0275H33.1343C33.5081 14.1293 33.8818 14.2895 34.2022 14.503L52.1959 29.8805C52.7299 30.4678 52.8366 31.4823 52.2493 32.1764Z" fill="#446CEB"/>
</g>
<defs>
<clipPath id="clip0">
<rect width="65" height="65" fill="white"/>
</clipPath>
</defs>
</svg>
